<svg version="1.1" viewBox="-289 381 32 32" xmlns="http://www.w3.org/2000/svg" xmlns:xlink="http://www.w3.org/1999/xlink" id="Layer_1" overflow="hidden"><style>
.MsftOfcThm_MainLight1_Fill {
 fill:#FFFFFF; 
}
.MsftOfcThm_Accent3_Stroke {
 stroke:#A5A5A5; 
}
</style>
<g><path d=" M -273 381 L -273 381 C -264.2 381 -257 388.2 -257 397 L -257 397 C -257 405.8 -264.2 413 -273 413 L -273 413 C -281.8 413 -289 405.8 -289 397 L -289 397 C -289 388.2 -281.8 381 -273 381 Z" class="st0" stroke="#A5A5A5" stroke-width="1.33333" stroke-dasharray="" stroke-dashoffset="1" stroke-opacity="1" fill="#FFFFFF" fill-opacity="1"/><path d=" M -273 381.8 L -273 381.8 C -264.6 381.8 -257.7 388.6 -257.7 397.1 L -257.7 397.1 C -257.7 405.5 -264.5 412.4 -273 412.4 L -273 412.4 C -281.4 412.4 -288.3 405.6 -288.3 397.1 L -288.3 397.1 C -288.3 388.6 -281.4 381.8 -273 381.8 Z" class="st1" stroke="#A5A5A5" stroke-width="1.33333" stroke-dasharray="" stroke-dashoffset="1" stroke-opacity="1" fill="#FFFFFF" fill-opacity="1"/></g><g><g><g><path d=" M -266.1 388.9 L -275.1 388.9 C -275.7 388.9 -276.3 389.4 -276.3 390.1 L -276.3 392.8 L -275.2 392.8 L -275.2 390 C -275.2 389.9 -275.2 389.9 -275.1 389.9 L -266.1 389.9 C -266 389.9 -266 389.9 -266 390 L -266 399 C -266 399.1 -266 399.1 -266.1 399.1 L -268.7 399.1 L -268.7 400.2 L -266.1 400.2 C -265.5 400.2 -264.9 399.7 -264.9 399 L -264.9 390 C -264.9 389.4 -265.4 388.9 -266.1 388.9 Z" class="st2" stroke="#A5A5A5" stroke-width="1.33333" stroke-dasharray="" stroke-dashoffset="1" stroke-opacity="1" fill="#FFFFFF" fill-opacity="1"/><path d=" M -270.9 393.8 L -279.9 393.8 C -280.5 393.8 -281.1 394.3 -281.1 395 L -281.1 404 C -281.1 404.6 -280.6 405.2 -279.9 405.2 L -270.9 405.2 C -270.3 405.2 -269.7 404.7 -269.7 404 L -269.7 395 C -269.8 394.3 -270.3 393.8 -270.9 393.8 Z M -270.9 404.1 L -279.9 404.1 C -280 404.1 -280 404.1 -280 404 L -280 395 C -280 394.9 -280 394.9 -279.9 394.9 L -270.9 394.9 C -270.8 394.9 -270.8 394.9 -270.8 395 L -270.8 404 L -270.8 404 C -270.8 404 -270.9 404.1 -270.9 404.1 Z" class="st2" stroke="#A5A5A5" stroke-width="1.33333" stroke-dasharray="" stroke-dashoffset="1" stroke-opacity="1" fill="#FFFFFF" fill-opacity="1"/></g></g></g></svg>