<svg width="19" height="20" viewBox="0 0 19 20" fill="none" xmlns="http://www.w3.org/2000/svg">
<path fill-rule="evenodd" clip-rule="evenodd" d="M4.5 3.5V2.5C4.5 1.39543 5.39543 0.5 6.5 0.5H12.5C13.6046 0.5 14.5 1.39543 14.5 2.5V3.5H17.5C18.0523 3.5 18.5 3.94772 18.5 4.5C18.5 5.05228 18.0523 5.5 17.5 5.5H16.5V16.5C16.5 18.1569 15.1569 19.5 13.5 19.5H5.5C3.84315 19.5 2.5 18.1569 2.5 16.5V5.5H1.5C0.947716 5.5 0.5 5.05228 0.5 4.5C0.5 3.94772 0.947716 3.5 1.5 3.5H4.5ZM6.5 2.5H12.5V3.5H6.5V2.5ZM4.5 5.5H14.5V16.5C14.5 17.0523 14.0523 17.5 13.5 17.5H5.5C4.94772 17.5 4.5 17.0523 4.5 16.5V5.5Z" fill="#555555"/>
</svg>
