<svg width="22" height="22" viewBox="0 0 22 22" fill="none" xmlns="http://www.w3.org/2000/svg">
<path fill-rule="evenodd" clip-rule="evenodd" d="M19.4648 0.591477C19.0743 0.200953 18.4411 0.200953 18.0506 0.591477C17.9516 0.69049 17.8015 0.714605 17.6708 0.664326C16.5979 0.251628 15.3358 0.477882 14.4706 1.34308L3.59661 12.2171C3.44041 12.3733 3.44041 12.6266 3.59662 12.7828L8.68778 17.8739C8.84399 18.0301 9.09726 18.0301 9.25347 17.8739L20.1274 6.99994C20.9926 6.13474 21.2189 4.87254 20.8062 3.79971C20.7559 3.66901 20.78 3.51891 20.879 3.4199C21.2696 3.02938 21.2696 2.39622 20.879 2.00569L19.4648 0.591477ZM18.954 4.77919C19.1103 4.9354 19.1103 5.18866 18.954 5.34487L9.25347 15.0455C9.09726 15.2017 8.84399 15.2017 8.68778 15.0455L6.42504 12.7828C6.26883 12.6266 6.26883 12.3733 6.42504 12.2171L16.1256 2.51645C16.2818 2.36024 16.5351 2.36023 16.6913 2.51645L18.954 4.77919Z" fill="#444444"/>
<path d="M0.675362 21.266C0.376756 21.3474 0.102765 21.0734 0.184213 20.7748L1.94032 14.3366C2.02114 14.0403 2.39192 13.9419 2.60908 14.1591L7.29086 18.8415C7.50801 19.0586 7.40954 19.4294 7.11324 19.5102L0.675362 21.266Z" fill="#444444"/>
</svg>
