<svg width="129" height="128" viewBox="0 0 129 128" fill="none" xmlns="http://www.w3.org/2000/svg">
<path d="M91.8474 82.3967C107.121 67.2279 107.121 42.6344 91.8474 27.4656C76.574 12.2968 51.8108 12.2968 36.5373 27.4656C21.2639 42.6344 21.2638 67.2279 36.5373 82.3967C54.4414 100.489 53.8458 103.023 61.9928 121.881C62.8732 123.919 64.1924 127.123 64.1924 127.123C64.1924 127.123 65.5115 123.919 66.3919 121.881C74.5388 103.023 75.0384 100.489 91.8474 82.3967Z" fill="#FF963D"/>
<path d="M89.637 55.1084C89.637 69.1906 78.1424 80.6064 63.963 80.6064C49.7837 80.6064 38.2891 69.1906 38.2891 55.1084C38.2891 41.0262 49.7837 29.6104 63.963 29.6104C78.1424 29.6104 89.637 41.0262 89.637 55.1084Z" fill="white"/>
<path d="M64.5694 33.1991C64.646 33.1276 64.7648 33.1273 64.8417 33.1985L72.1254 39.9376C72.2534 40.0561 72.4612 39.9653 72.4612 39.7908V36.0754C72.4612 35.965 72.5507 35.8754 72.6612 35.8754H76.2532C76.3636 35.8754 76.4532 35.965 76.4532 36.0754V43.6389C76.4532 43.6934 76.4755 43.7456 76.5149 43.7833L85.0639 51.9694C85.1536 52.0552 85.1442 52.2011 85.0443 52.2748L83.0878 53.7174C83.0104 53.7744 82.9035 53.7684 82.833 53.703L64.8405 37.01C64.7641 36.9391 64.6461 36.9388 64.5693 37.0091L46.3595 53.6952C46.2846 53.7638 46.1701 53.7654 46.0933 53.6988L44.4569 52.2794C44.3672 52.2016 44.3647 52.0632 44.4515 51.9821L64.5694 33.1991Z" fill="#FF9F43"/>
<path fill-rule="evenodd" clip-rule="evenodd" d="M64.5692 39.8132C64.646 39.7424 64.7644 39.7426 64.8409 39.8138L79.2408 53.1957C79.2815 53.2335 79.3046 53.2866 79.3046 53.3422V67.5193C79.3046 67.6298 79.2151 67.7193 79.1046 67.7193H67.7567C67.6463 67.7193 67.5567 67.6298 67.5567 67.5193V55.9218C67.5567 55.8113 67.4672 55.7218 67.3567 55.7218H61.9398C61.8294 55.7218 61.7398 55.8113 61.7398 55.9218V67.5193C61.7398 67.6298 61.6503 67.7193 61.5398 67.7193H50.1919C50.0815 67.7193 49.9919 67.6298 49.9919 67.5193V53.3427C49.9919 53.2868 50.0153 53.2335 50.0563 53.1956L64.5692 39.8132ZM58.7743 55.8097C58.7743 55.6992 58.6848 55.6097 58.5743 55.6097H53.1574C53.047 55.6097 52.9574 55.6992 52.9574 55.8097V61.2441C52.9574 61.353 53.0446 61.4419 53.1536 61.444L58.5705 61.5484C58.6824 61.5506 58.7743 61.4605 58.7743 61.3485V55.8097ZM76.3391 55.8097C76.3391 55.6992 76.2496 55.6097 76.1391 55.6097H70.7222C70.6118 55.6097 70.5222 55.6992 70.5222 55.8097V61.2403C70.5222 61.3507 70.6118 61.4403 70.7222 61.4403H76.1391C76.2496 61.4403 76.3391 61.3507 76.3391 61.2403V55.8097Z" fill="#FF9F43"/>
</svg>
