<svg width="129" height="129" viewBox="0 0 129 129" fill="none" xmlns="http://www.w3.org/2000/svg">
<path d="M91.8474 82.3967C107.121 67.2279 107.121 42.6344 91.8474 27.4656C76.574 12.2968 51.8108 12.2968 36.5373 27.4656C21.2639 42.6344 21.2638 67.2279 36.5373 82.3967C54.4414 100.489 53.8458 103.023 61.9928 121.881C62.8732 123.919 64.1924 127.123 64.1924 127.123C64.1924 127.123 65.5115 123.919 66.3919 121.881C74.5388 103.023 75.0384 100.489 91.8474 82.3967Z" fill="#0D6EFD" stroke="#0D6EFD"/>
<path d="M89.637 55.1084C89.637 69.1906 78.1424 80.6064 63.963 80.6064C49.7837 80.6064 38.2891 69.1906 38.2891 55.1084C38.2891 41.0262 49.7837 29.6104 63.963 29.6104C78.1424 29.6104 89.637 41.0262 89.637 55.1084Z" fill="white"/>
<g filter="url(#filter0_d_2823_3268)">
<path d="M52.302 67.719V63.0079L63.3098 52.8154C64.246 51.9094 65.0312 51.094 65.6654 50.3692C66.3097 49.6444 66.7979 48.9347 67.1301 48.2401C67.4623 47.5355 67.6284 46.7754 67.6284 45.96C67.6284 45.054 67.4221 44.2739 67.0093 43.6195C66.5966 42.9552 66.0329 42.4468 65.3181 42.0945C64.6034 41.7321 63.793 41.5509 62.887 41.5509C61.9408 41.5509 61.1153 41.7421 60.4107 42.1247C59.706 42.5072 59.1624 43.0558 58.7799 43.7705C58.3973 44.4853 58.2061 45.3359 58.2061 46.3224H52C52 44.299 52.458 42.5424 53.3741 41.0526C54.2902 39.5627 55.5736 38.4101 57.2246 37.5947C58.8755 36.7793 60.7781 36.3716 62.9323 36.3716C65.147 36.3716 67.0748 36.7642 68.7156 37.5494C70.3665 38.3245 71.65 39.4016 72.5661 40.7808C73.4822 42.1599 73.9402 43.7403 73.9402 45.5221C73.9402 46.6899 73.7087 47.8425 73.2456 48.98C72.7926 50.1175 71.9822 51.3809 70.8145 52.7701C69.6468 54.1492 68.0009 55.8052 65.8768 57.738L61.362 62.1623V62.3737H74.3479V67.719H52.302Z" fill="#0D6EFD"/>
</g>
<defs>
<filter id="filter0_d_2823_3268" x="48.5" y="32.8716" width="30.3477" height="39.3477" filterUnits="userSpaceOnUse" color-interpolation-filters="sRGB">
<feFlood flood-opacity="0" result="BackgroundImageFix"/>
<feColorMatrix in="SourceAlpha" type="matrix" values="0 0 0 0 0 0 0 0 0 0 0 0 0 0 0 0 0 0 127 0" result="hardAlpha"/>
<feOffset dx="0.5" dy="0.5"/>
<feGaussianBlur stdDeviation="2"/>
<feComposite in2="hardAlpha" operator="out"/>
<feColorMatrix type="matrix" values="0 0 0 0 0 0 0 0 0 0 0 0 0 0 0 0 0 0 0.25 0"/>
<feBlend mode="normal" in2="BackgroundImageFix" result="effect1_dropShadow_2823_3268"/>
<feBlend mode="normal" in="SourceGraphic" in2="effect1_dropShadow_2823_3268" result="shape"/>
</filter>
</defs>
</svg>
