<svg width="129" height="129" viewBox="0 0 129 129" fill="none" xmlns="http://www.w3.org/2000/svg">
<path d="M91.8474 82.3967C107.121 67.2279 107.121 42.6344 91.8474 27.4656C76.574 12.2968 51.8108 12.2968 36.5373 27.4656C21.2639 42.6344 21.2638 67.2279 36.5373 82.3967C54.4414 100.489 53.8458 103.023 61.9928 121.881C62.8732 123.919 64.1924 127.123 64.1924 127.123C64.1924 127.123 65.5115 123.919 66.3919 121.881C74.5388 103.023 75.0384 100.489 91.8474 82.3967Z" fill="#0D6EFD" stroke="#0D6EFD"/>
<path d="M89.637 55.1084C89.637 69.1906 78.1424 80.6064 63.963 80.6064C49.7837 80.6064 38.2891 69.1906 38.2891 55.1084C38.2891 41.0262 49.7837 29.6104 63.963 29.6104C78.1424 29.6104 89.637 41.0262 89.637 55.1084Z" fill="white"/>
<g filter="url(#filter0_d_2823_3271)">
<path d="M63.1096 68.1418C60.8547 68.1418 58.8464 67.7543 57.0847 66.9791C55.3331 66.1939 53.949 65.1168 52.9322 63.7478C51.9256 62.3686 51.4072 60.7781 51.377 58.9762H57.9605C58.0008 59.7312 58.2474 60.3956 58.7004 60.9694C59.1635 61.5331 59.7775 61.971 60.5426 62.2831C61.3077 62.5951 62.1684 62.7512 63.1247 62.7512C64.1213 62.7512 65.0021 62.575 65.7672 62.2227C66.5322 61.8703 67.1312 61.3821 67.5641 60.758C67.9969 60.1338 68.2134 59.4141 68.2134 58.5987C68.2134 57.7732 67.9818 57.0434 67.5188 56.4092C67.0658 55.7649 66.4114 55.2616 65.5558 54.8992C64.7102 54.5368 63.7035 54.3556 62.5358 54.3556H59.6517V49.5538H62.5358C63.5223 49.5538 64.3931 49.3827 65.1481 49.0404C65.9131 48.6982 66.5071 48.225 66.9299 47.621C67.3527 47.007 67.5641 46.2922 67.5641 45.4768C67.5641 44.7017 67.3778 44.0222 67.0054 43.4383C66.643 42.8444 66.1296 42.3814 65.4652 42.0492C64.8109 41.717 64.0458 41.5509 63.17 41.5509C62.2841 41.5509 61.4738 41.7119 60.7389 42.0341C60.004 42.3461 59.4151 42.7941 58.9722 43.3779C58.5293 43.9618 58.2927 44.6463 58.2625 45.4315H51.9961C52.0263 43.6497 52.5346 42.0794 53.5211 40.7204C54.5077 39.3614 55.8365 38.2993 57.5075 37.5343C59.1886 36.7591 61.0862 36.3716 63.2002 36.3716C65.3343 36.3716 67.2017 36.7591 68.8023 37.5343C70.4029 38.3094 71.6461 39.3563 72.532 40.6751C73.4279 41.9837 73.8708 43.4534 73.8607 45.0842C73.8708 46.8157 73.3322 48.2603 72.2451 49.4179C71.1679 50.5756 69.7636 51.3104 68.0322 51.6225V51.8641C70.3072 52.156 72.0387 52.9463 73.2266 54.2348C74.4245 55.5133 75.0184 57.1138 75.0083 59.0366C75.0184 60.7982 74.51 62.3636 73.4832 63.7327C72.4665 65.1017 71.0622 66.1788 69.2704 66.964C67.4785 67.7492 65.4249 68.1418 63.1096 68.1418Z" fill="#0D6EFD"/>
</g>
<defs>
<filter id="filter0_d_2823_3271" x="47.877" y="32.8716" width="31.6318" height="39.77" filterUnits="userSpaceOnUse" color-interpolation-filters="sRGB">
<feFlood flood-opacity="0" result="BackgroundImageFix"/>
<feColorMatrix in="SourceAlpha" type="matrix" values="0 0 0 0 0 0 0 0 0 0 0 0 0 0 0 0 0 0 127 0" result="hardAlpha"/>
<feOffset dx="0.5" dy="0.5"/>
<feGaussianBlur stdDeviation="2"/>
<feComposite in2="hardAlpha" operator="out"/>
<feColorMatrix type="matrix" values="0 0 0 0 0 0 0 0 0 0 0 0 0 0 0 0 0 0 0.25 0"/>
<feBlend mode="normal" in2="BackgroundImageFix" result="effect1_dropShadow_2823_3271"/>
<feBlend mode="normal" in="SourceGraphic" in2="effect1_dropShadow_2823_3271" result="shape"/>
</filter>
</defs>
</svg>
