<svg width="15" height="14" viewBox="0 0 15 14" fill="none" xmlns="http://www.w3.org/2000/svg">
<path d="M7.49967 0.333252C11.1817 0.333252 14.1663 3.31792 14.1663 6.99992C14.1663 10.6819 11.1817 13.6666 7.49967 13.6666C3.81767 13.6666 0.833008 10.6819 0.833008 6.99992C0.833008 3.31792 3.81767 0.333252 7.49967 0.333252ZM7.49967 3.66659C7.37885 3.66659 7.26211 3.71035 7.17105 3.78976C7.08 3.86918 7.02077 3.97888 7.00434 4.09859L6.99967 4.16659V6.49992H4.66634C4.53966 6.49996 4.41771 6.54808 4.32515 6.63457C4.23258 6.72105 4.17629 6.83945 4.16766 6.96584C4.15902 7.09223 4.19868 7.21718 4.27863 7.31545C4.35857 7.41372 4.47284 7.47798 4.59834 7.49525L4.66634 7.49992H6.99967V9.83325C6.99971 9.95993 7.04784 10.0819 7.13432 10.1744C7.22081 10.267 7.33921 10.3233 7.46559 10.3319C7.59198 10.3406 7.71694 10.3009 7.81521 10.221C7.91348 10.141 7.97774 10.0268 7.99501 9.90125L7.99967 9.83325V7.49992H10.333C10.4597 7.49988 10.5816 7.45176 10.6742 7.36527C10.7668 7.27878 10.8231 7.16039 10.8317 7.034C10.8403 6.90761 10.8007 6.78266 10.7207 6.68439C10.6408 6.58611 10.5265 6.52185 10.401 6.50459L10.333 6.49992H7.99967V4.16659C7.99967 4.03398 7.947 3.9068 7.85323 3.81303C7.75946 3.71926 7.63228 3.66659 7.49967 3.66659Z" fill="#007EC6"/>
</svg>
