<svg width="15" height="14" viewBox="0 0 10 14" fill="none" xmlns="http://www.w3.org/2000/svg">
<path d="M4.815 0C2.1551 0 0 2.1551 0 4.815C0 7.4749 2.1551 9.63 4.815 9.63C7.4749 9.63 9.63 7.4749 9.63 4.815C9.63 2.1551 7.4749 0 4.815 0ZM5.92361 6.7973L4.21118 5.55278C4.151 5.50813 4.11605 5.43823 4.11605 5.36445V2.09685C4.11605 1.96871 4.22089 1.86387 4.34903 1.86387H5.28097C5.40911 1.86387 5.51395 1.96871 5.51395 2.09685V4.77034L6.74682 5.66733C6.85167 5.74305 6.87302 5.88867 6.7973 5.99351L6.24979 6.74682C6.17407 6.84973 6.02846 6.87302 5.92361 6.7973Z" fill="#CED4DA"/>
</svg>
