<svg width="18" height="18" viewBox="0 0 18 18" fill="none" xmlns="http://www.w3.org/2000/svg">
<path d="M11.1584 5.66675L9.00002 7.82508L6.84169 5.66675L5.66669 6.84175L7.82502 9.00008L5.66669 11.1584L6.84169 12.3334L9.00002 10.1751L11.1584 12.3334L12.3334 11.1584L10.175 9.00008L12.3334 6.84175L11.1584 5.66675ZM9.00002 0.666748C4.39169 0.666748 0.666687 4.39175 0.666687 9.00008C0.666687 13.6084 4.39169 17.3334 9.00002 17.3334C13.6084 17.3334 17.3334 13.6084 17.3334 9.00008C17.3334 4.39175 13.6084 0.666748 9.00002 0.666748ZM9.00002 15.6667C5.32502 15.6667 2.33335 12.6751 2.33335 9.00008C2.33335 5.32508 5.32502 2.33341 9.00002 2.33341C12.675 2.33341 15.6667 5.32508 15.6667 9.00008C15.6667 12.6751 12.675 15.6667 9.00002 15.6667Z" fill="black"/>
</svg>
