<svg width="25" height="25" viewBox="0 0 25 25" fill="none" xmlns="http://www.w3.org/2000/svg">
<path d="M12.4978 0C5.59539 0 0 5.59717 0 12.5004C0 19.4028 5.59539 25 12.4978 25C19.4037 25 25 19.4019 25 12.5004C25 5.59717 19.4037 0 12.4978 0ZM17.8723 15.885L15.8815 17.8732C15.8815 17.8732 12.732 14.494 12.4969 14.494C12.2653 14.494 9.11497 17.8732 9.11497 17.8732L7.12319 15.885C7.12319 15.885 10.506 12.7812 10.506 12.5049C10.506 12.2242 7.12319 9.11944 7.12319 9.11944L9.11497 7.12677C9.11497 7.12677 12.2913 10.5078 12.4969 10.5078C12.7043 10.5078 15.8815 7.12677 15.8815 7.12677L17.8723 9.11944C17.8723 9.11944 14.4886 12.2689 14.4886 12.5049C14.4886 12.7293 17.8723 15.885 17.8723 15.885Z" fill="black" fill-opacity="0.33"/>
</svg>
