<svg width="16" height="18" viewBox="0 0 16 18" fill="none" xmlns="http://www.w3.org/2000/svg">
<path opacity="0.5" d="M1.25 16.3125C1.25 16.7601 1.42779 17.1893 1.74426 17.5057C2.06072 17.8222 2.48995 18 2.9375 18H13.0625C13.5101 18 13.9393 17.8222 14.2557 17.5057C14.5722 17.1893 14.75 16.7601 14.75 16.3125V4.50001H1.25V16.3125ZM10.8125 7.31251C10.8125 7.16332 10.8718 7.02025 10.9773 6.91476C11.0827 6.80927 11.2258 6.75001 11.375 6.75001C11.5242 6.75001 11.6673 6.80927 11.7727 6.91476C11.8782 7.02025 11.9375 7.16332 11.9375 7.31251V15.1875C11.9375 15.3367 11.8782 15.4798 11.7727 15.5853C11.6673 15.6907 11.5242 15.75 11.375 15.75C11.2258 15.75 11.0827 15.6907 10.9773 15.5853C10.8718 15.4798 10.8125 15.3367 10.8125 15.1875V7.31251ZM7.4375 7.31251C7.4375 7.16332 7.49676 7.02025 7.60225 6.91476C7.70774 6.80927 7.85082 6.75001 8 6.75001C8.14918 6.75001 8.29226 6.80927 8.39775 6.91476C8.50324 7.02025 8.5625 7.16332 8.5625 7.31251V15.1875C8.5625 15.3367 8.50324 15.4798 8.39775 15.5853C8.29226 15.6907 8.14918 15.75 8 15.75C7.85082 15.75 7.70774 15.6907 7.60225 15.5853C7.49676 15.4798 7.4375 15.3367 7.4375 15.1875V7.31251ZM4.0625 7.31251C4.0625 7.16332 4.12176 7.02025 4.22725 6.91476C4.33274 6.80927 4.47582 6.75001 4.625 6.75001C4.77418 6.75001 4.91726 6.80927 5.02275 6.91476C5.12824 7.02025 5.1875 7.16332 5.1875 7.31251V15.1875C5.1875 15.3367 5.12824 15.4798 5.02275 15.5853C4.91726 15.6907 4.77418 15.75 4.625 15.75C4.47582 15.75 4.33274 15.6907 4.22725 15.5853C4.12176 15.4798 4.0625 15.3367 4.0625 15.1875V7.31251ZM15.3125 1.12501H11.0938L10.7633 0.467584C10.6933 0.327035 10.5854 0.208807 10.4519 0.126203C10.3184 0.0435979 10.1644 -0.000106452 10.0074 6.16385e-06H5.98906C5.8324 -0.000596082 5.67873 0.0429453 5.54567 0.125642C5.41261 0.208338 5.30554 0.326845 5.23672 0.467584L4.90625 1.12501H0.6875C0.538316 1.12501 0.395242 1.18427 0.289752 1.28976C0.184263 1.39525 0.125 1.53832 0.125 1.68751L0.125 2.81251C0.125 2.96169 0.184263 3.10476 0.289752 3.21025C0.395242 3.31574 0.538316 3.37501 0.6875 3.37501H15.3125C15.4617 3.37501 15.6048 3.31574 15.7102 3.21025C15.8157 3.10476 15.875 2.96169 15.875 2.81251V1.68751C15.875 1.53832 15.8157 1.39525 15.7102 1.28976C15.6048 1.18427 15.4617 1.12501 15.3125 1.12501Z" fill="#8B94A3"/>
</svg>
