<svg width="822" height="873" viewBox="0 0 822 873" fill="none" xmlns="http://www.w3.org/2000/svg">
<path d="M757.812 761.232L761.324 752.163L761.73 525.013L762 298H584H406H50L50.2702 524.326L50.6755 750.789L53.6478 758.759C63.7806 785.693 81.074 803.419 104.717 810.977L114.175 814H406C651.349 814 698.906 813.726 704.581 812.077C716.335 808.779 729.17 801.083 738.357 791.739C748.084 781.982 752.678 774.837 757.812 761.232Z" fill="#FF5353"/>
<path d="M374.581 373.119C370.037 374.123 364.959 376.276 363.355 377.712C360.414 380.87 368.968 661.201 372.443 665.507C375.116 668.952 398.104 671.536 419.488 670.531C442.209 669.526 448.09 667.804 449.694 661.919C450.496 659.479 452.901 595.173 455.307 519.241C458.515 415.75 458.782 380.296 456.644 378.142C455.04 376.42 449.426 374.123 444.615 372.975C432.586 370.248 386.343 370.391 374.581 373.119Z" fill="white"/>
<path d="M380.463 708.569C360.148 712.445 354 719.909 354 740.722C354.267 757.659 359.079 764.549 374.048 769.286C387.413 773.449 432.32 773.449 445.952 769.286C461.456 764.406 466 757.516 466 739.143C466 713.162 457.179 707.851 412.539 707.277C399.442 707.134 385.007 707.708 380.463 708.569Z" fill="white"/>
<path d="M173.434 8.15338L173.497 8.12317L173.56 8.09491C175.69 7.13971 178.082 6.27081 180.247 5.63403C182.267 5.03992 184.57 4.50116 186.334 4.50116C190.156 4.50116 194.435 5.87067 198.146 7.72626C201.894 9.60004 205.614 12.2446 208.183 15.3112C214.226 22.5012 215.5 29.9713 215.5 45.9345V55.1678H299H382.5V44.4678C382.5 40.1604 382.671 35.8111 382.947 32.2377C383.085 30.4536 383.252 28.8227 383.445 27.4659C383.62 26.2338 383.862 24.8723 384.248 23.8361C386.203 18.5652 390.594 13.8369 395.4 10.4666C400.209 7.09473 406.142 4.58636 411.732 4.50165L411.766 4.50116H411.8C416.134 4.50116 421.273 6.46216 425.508 8.84662C429.752 11.2361 434.108 14.6249 436.423 18.3595C438.028 20.9295 439.058 23.2708 439.701 26.9635C440.295 30.3809 440.566 35.0216 440.831 42.1635C440.831 42.165 440.831 42.1664 440.831 42.168L441.325 54.5209L524.481 54.9012L524.488 54.9012L607.611 55.1546L608.104 42.8213L608.104 42.8126L608.105 42.804C608.432 35.3372 608.671 30.6884 609.313 27.3114C610.029 23.5389 611.258 21.2684 613.119 18.5101C615.66 14.6324 619.951 11.2042 624.307 8.77209C628.654 6.34491 633.799 4.50116 638.334 4.50116C642.156 4.50116 646.435 5.87067 650.146 7.72626C653.894 9.60004 657.614 12.2446 660.183 15.3112C666.226 22.5012 667.5 29.9713 667.5 45.9345V55.1678H679.4C712.03 55.1678 734.25 61.3661 758.803 77.639C785.928 95.3561 805.208 122.844 814.273 155.808L814.275 155.817L814.278 155.826L817.344 167.159L817.5 167.736V168.335V461.668V755.001V755.599L817.344 756.177L814.278 767.51L814.275 767.519C801.055 815.993 766.12 850.921 717.526 864.274L717.518 864.276L717.509 864.278L706.176 867.345L705.599 867.501H705H411.667H118.334H117.707L117.104 867.33L104.461 863.737C104.457 863.736 104.453 863.734 104.449 863.733C83.6968 857.96 70.7395 851.125 53.6134 837.014C34.8314 821.682 20.341 800.71 12.7367 778.173L12.7328 778.162L12.7289 778.15C12.4896 777.428 12.2555 776.733 12.0269 776.053C10.4716 771.434 9.16835 767.563 8.19852 761.119C7.10858 753.876 6.42689 743.372 5.98504 724.356C5.16039 688.864 5.16245 622.953 5.16655 491.542C5.16685 481.938 5.16716 471.985 5.16716 461.668C5.16716 451.351 5.16685 441.398 5.16655 431.794C5.16245 300.383 5.16039 234.471 5.98504 198.98C6.42689 179.964 7.10858 169.459 8.19852 162.217C9.16835 155.773 10.4716 151.902 12.0268 147.282C12.2555 146.603 12.4896 145.908 12.7289 145.186L12.7319 145.177L12.7348 145.168C24.3444 110.616 50.4388 82.0698 84.4755 66.6362L84.4817 66.6333C101.673 58.8695 114.151 56.2504 138.32 55.5703C138.327 55.5701 138.334 55.5698 138.341 55.5696L155.607 54.926L156.104 42.6851L156.105 42.677L156.105 42.6689C156.432 35.2689 156.672 30.6521 157.314 27.2902C158.033 23.5223 159.268 21.2504 161.138 18.4818L161.143 18.4744C164.176 14.0055 168.155 10.7175 173.434 8.15338ZM411.8 256.501H758.7L758.101 216.001L758.101 215.992L758.101 215.984C757.901 197.639 757.668 186.196 757.273 178.704C756.876 171.153 756.326 168.012 755.668 166.033C747.971 143.467 729.541 124.963 707.354 117.818L707.333 117.811L707.311 117.804C705.803 117.301 702.784 116.738 698.35 116.258C694.021 115.79 688.638 115.429 682.587 115.232L682.582 115.232L667.5 114.722V148.468C667.5 159.698 667.367 169.912 667.132 177.687C667.014 181.571 666.871 184.876 666.703 187.409C666.551 189.713 666.354 191.905 665.996 193.163C665.995 193.166 665.995 193.168 665.994 193.171C664.282 199.195 660.228 204.522 655.309 208.34C650.391 212.156 644.235 214.752 637.993 214.834L637.963 214.835H637.934C634.492 214.835 630.594 213.834 627.119 212.419C623.63 210.997 620.111 208.971 617.529 206.557C615.713 204.87 613.856 203.134 612.421 200.796C610.934 198.372 610.065 195.604 609.503 191.953C608.423 184.942 608.299 173.232 608.101 151.308L607.744 114.835H524.2H440.834V150.734C440.834 170.25 440.803 180.573 440.408 186.707C440.208 189.811 439.904 192.066 439.392 194.011C438.867 196.004 438.169 197.49 437.444 198.976L437.419 199.027L437.393 199.077C436.345 201.092 434.881 203.194 433.371 205.002C431.898 206.767 430.144 208.536 428.43 209.679C413.288 219.774 391.7 213.226 384.727 196.499C384.106 195.066 383.748 193.295 383.493 191.291C383.225 189.192 383.031 186.488 382.888 183.021C382.6 176.082 382.5 165.727 382.5 150.335V114.835H299H215.5V148.601C215.5 159.765 215.367 169.946 215.132 177.704C215.014 181.579 214.871 184.881 214.703 187.411C214.551 189.713 214.354 191.905 213.996 193.163C213.995 193.166 213.995 193.168 213.994 193.171C212.282 199.195 208.228 204.522 203.309 208.34C198.391 212.156 192.235 214.752 185.993 214.834L185.963 214.835H185.934C182.492 214.835 178.594 213.834 175.119 212.419C171.632 210.998 168.115 208.973 165.533 206.561C163.716 204.873 161.857 203.136 160.421 200.796C158.934 198.372 158.065 195.604 157.503 191.953C156.423 184.943 156.299 173.233 156.101 151.312C156.101 151.311 156.101 151.311 156.101 151.311C156.101 151.31 156.101 151.309 156.101 151.308L155.745 114.873L144.639 114.968L144.633 114.968C126.775 115.098 116.432 117.172 105.905 122.246C90.7469 129.638 79.863 140.857 72.2751 157.044L72.2686 157.058L72.262 157.072C68.9644 163.984 67.1685 169.073 66.1367 177.891C65.073 186.98 64.8338 199.936 64.8338 222.601V256.501H411.8ZM411.667 316.168H64.8393L65.1005 531.26L65.1005 531.262L65.499 750.172L68.1366 757.126C68.1375 757.129 68.1384 757.131 68.1393 757.133C77.7307 782.194 93.8682 798.252 115.683 805.108L124.358 807.835H411.667C532.739 807.835 604.99 807.768 647.672 807.501C669.02 807.368 682.936 807.185 691.854 806.936C696.318 806.812 699.483 806.672 701.682 806.518C702.781 806.441 703.6 806.364 704.197 806.288C704.494 806.251 704.716 806.216 704.877 806.187C704.958 806.172 705.014 806.16 705.05 806.152C705.088 806.144 705.102 806.14 705.098 806.141L705.117 806.135L705.137 806.13C715.947 803.148 727.939 796.098 736.485 787.553L736.496 787.541L736.507 787.53C745.636 778.528 749.822 772.143 754.666 759.522L754.673 759.504L754.68 759.485L757.835 751.476L758.234 531.929V531.926L758.495 316.168H587.334H411.667Z" fill="#FF0000" stroke="white" stroke-width="9"/>
</svg>