<svg width="12" height="12" viewBox="0 0 12 12" fill="none" xmlns="http://www.w3.org/2000/svg">
<path d="M10.8126 3.03233L8.98676 1.19719C8.86611 1.07715 8.70284 1.00977 8.53264 1.00977C8.36245 1.00977 8.19917 1.07715 8.07852 1.19719L1.60577 7.66062L1.01479 10.2112C0.994402 10.3044 0.995101 10.401 1.01683 10.4939C1.03857 10.5869 1.08079 10.6738 1.14041 10.7483C1.20003 10.8228 1.27554 10.8831 1.36144 10.9247C1.44733 10.9663 1.54143 10.9882 1.63687 10.9888C1.68134 10.9932 1.72615 10.9932 1.77062 10.9888L4.34915 10.3978L10.8126 3.94057C10.9326 3.81992 11 3.65665 11 3.48645C11 3.31626 10.9326 3.15299 10.8126 3.03233ZM4.03811 9.83791L1.62132 10.3449L2.17186 7.97477L7.01476 3.15053L8.88101 5.01677L4.03811 9.83791ZM9.2978 4.56577L7.43156 2.69952L8.51398 1.62332L10.3491 3.48956L9.2978 4.56577Z" fill="#617F9E" stroke="#617F9E" stroke-width="0.6"/>
</svg>
