<svg width="16" height="18" viewBox="0 0 16 18" fill="none" xmlns="http://www.w3.org/2000/svg">
<g clip-path="url(#clip0_2163_4334)">
<path opacity="0.5" d="M2.40339 11.688L1.48287 15.6607C1.45112 15.806 1.45221 15.9565 1.48606 16.1012C1.51991 16.246 1.58567 16.3813 1.67854 16.4974C1.7714 16.6135 1.88903 16.7074 2.02282 16.7722C2.15661 16.837 2.30318 16.8711 2.45184 16.872C2.5211 16.8789 2.5909 16.8789 2.66016 16.872L6.65713 15.9514L14.3313 8.30633L10.0485 4.0332L2.40339 11.688Z" fill="#8B94A3"/>
<path opacity="0.5" d="M16.7441 4.47899L13.8856 1.62056C13.6977 1.43358 13.4434 1.32861 13.1783 1.32861C12.9132 1.32861 12.6589 1.43358 12.4709 1.62056L10.8818 3.20965L15.1598 7.48762L16.7489 5.89852C16.8419 5.80506 16.9156 5.69417 16.9656 5.57221C17.0157 5.45025 17.0413 5.3196 17.0408 5.18775C17.0404 5.05591 17.0139 4.92544 16.963 4.80382C16.9121 4.6822 16.8377 4.57182 16.7441 4.47899Z" fill="#8B94A3"/>
</g>
</svg>
