<svg width="13" height="14" viewBox="0 0 13 14" fill="none" xmlns="http://www.w3.org/2000/svg">
<path d="M9.625 1.25H11.5C11.6658 1.25 11.8247 1.31585 11.9419 1.43306C12.0592 1.55027 12.125 1.70924 12.125 1.875V13.125C12.125 13.2908 12.0592 13.4497 11.9419 13.5669C11.8247 13.6842 11.6658 13.75 11.5 13.75H1.5C1.33424 13.75 1.17527 13.6842 1.05806 13.5669C0.940848 13.4497 0.875 13.2908 0.875 13.125V1.875C0.875 1.70924 0.940848 1.55027 1.05806 1.43306C1.17527 1.31585 1.33424 1.25 1.5 1.25H3.375V0H4.625V1.25H8.375V0H9.625V1.25ZM9.625 2.5V3.75H8.375V2.5H4.625V3.75H3.375V2.5H2.125V12.5H10.875V2.5H9.625ZM3.375 5H9.625V6.25H3.375V5ZM3.375 7.5H9.625V8.75H3.375V7.5Z" fill="black"/>
</svg>
