<?xml version="1.0" encoding="iso-8859-1"?>
<!-- Generator: Adobe Illustrator 19.0.0, SVG Export Plug-In . SVG Version: 6.00 Build 0)  -->
<svg version="1.1" id="Layer_1" xmlns="http://www.w3.org/2000/svg" xmlns:xlink="http://www.w3.org/1999/xlink" x="0px" y="0px"
	 viewBox="0 0 512 512" style="enable-background:new 0 0 512 512;" xml:space="preserve">
<g>
	<g>
		<path d="M501.801,133.902H298.176c-5.831-26.532-19.68-63.43-42.176-63.43s-36.345,36.898-42.176,63.43H10.199
			C4.567,133.902,0,138.468,0,144.101v287.228c0,5.633,4.567,10.199,10.199,10.199h491.602c5.632,0,10.199-4.566,10.199-10.199
			V144.101C512,138.468,507.433,133.902,501.801,133.902z M240.38,115.716c7.561-19.976,14.353-24.737,15.612-24.845
			c1.276,0.108,8.069,4.869,15.629,24.845c5.864,15.493,9.368,32.982,9.368,40.94c0,13.778-11.209,24.988-24.988,24.988
			s-24.988-11.21-24.988-24.988C231.012,148.697,234.516,131.208,240.38,115.716z M491.602,421.129H20.398V154.3h190.291
			c-0.049,0.864-0.076,1.657-0.076,2.355c0,25.027,20.361,45.386,45.386,45.386s45.386-20.36,45.386-45.386
			c0-0.698-0.027-1.491-0.076-2.355h190.291V421.129z"/>
	</g>
</g>
<g>
	<g>
		<path d="M198.884,206.631H57.116c-5.632,0-10.199,4.566-10.199,10.199v141.769c0,5.633,4.567,10.199,10.199,10.199h141.769
			c5.632,0,10.199-4.566,10.199-10.199V216.83C209.084,211.197,204.516,206.631,198.884,206.631z M86.965,347.89
			c4.54-17.576,20.531-30.598,39.506-30.598c18.975,0,34.966,13.021,39.506,30.598H86.965z M108.112,277.006
			c0-10.404,8.464-18.869,18.869-18.869c10.404,0,18.869,8.464,18.869,18.869s-8.464,18.869-18.869,18.869
			C116.576,295.874,108.112,287.41,108.112,277.006z M188.685,348.4h-1.795c-3.063-19.169-15.055-35.392-31.569-44.259
			c6.759-7.057,10.925-16.616,10.925-27.135c0-21.652-17.615-39.267-39.267-39.267c-21.652,0-39.267,17.615-39.267,39.267
			c0,10.345,4.028,19.763,10.59,26.783c-15.105,7.868-26.537,21.843-30.988,38.639V227.03h121.37V348.4z"/>
	</g>
</g>
<g>
	<g>
		<path d="M457.944,253.038h-13.259c-5.632,0-10.199,4.566-10.199,10.199c0,5.633,4.567,10.199,10.199,10.199h13.259
			c5.632,0,10.199-4.566,10.199-10.199C468.143,257.604,463.576,253.038,457.944,253.038z"/>
	</g>
</g>
<g>
	<g>
		<path d="M402.869,253.038H247.841c-5.632,0-10.199,4.566-10.199,10.199c0,5.633,4.567,10.199,10.199,10.199h155.028
			c5.632,0,10.199-4.566,10.199-10.199C413.068,257.604,408.501,253.038,402.869,253.038z"/>
	</g>
</g>
<g>
	<g>
		<path d="M457.944,301.994H247.841c-5.632,0-10.199,4.566-10.199,10.199c0,5.633,4.567,10.199,10.199,10.199h210.104
			c5.632,0,10.199-4.566,10.199-10.199C468.143,306.56,463.576,301.994,457.944,301.994z"/>
	</g>
</g>
<g>
</g>
<g>
</g>
<g>
</g>
<g>
</g>
<g>
</g>
<g>
</g>
<g>
</g>
<g>
</g>
<g>
</g>
<g>
</g>
<g>
</g>
<g>
</g>
<g>
</g>
<g>
</g>
<g>
</g>
</svg>
