<svg width="15" height="14" viewBox="0 0 15 14" fill="none" xmlns="http://www.w3.org/2000/svg">
<path d="M6.29659 0C4.66051 0.00172024 3.09199 0.581735 1.9351 1.61281C0.778212 2.64389 0.127425 4.04184 0.125495 5.5C0.123535 6.69161 0.560266 7.85089 1.36869 8.8C1.36869 8.8 1.53699 8.9975 1.56448 9.026L6.29659 14L11.031 9.0235C11.0556 8.997 11.2245 8.8 11.2245 8.8L11.2251 8.7985C12.0331 7.84981 12.4696 6.69107 12.4677 5.5C12.4658 4.04184 11.815 2.64389 10.6581 1.61281C9.5012 0.581735 7.93268 0.00172024 6.29659 0V0ZM6.29659 7.5C5.85277 7.5 5.41891 7.3827 5.04988 7.16294C4.68085 6.94318 4.39322 6.63082 4.22338 6.26537C4.05353 5.89991 4.00909 5.49778 4.09568 5.10982C4.18226 4.72186 4.39599 4.36549 4.70982 4.08579C5.02366 3.80608 5.4235 3.6156 5.85881 3.53843C6.29411 3.46126 6.74531 3.50087 7.15535 3.65224C7.56539 3.80362 7.91586 4.05996 8.16244 4.38886C8.40902 4.71776 8.54063 5.10444 8.54063 5.5C8.53989 6.03023 8.30323 6.53855 7.88255 6.91348C7.46187 7.28841 6.89152 7.49934 6.29659 7.5V7.5Z" fill="#8B94A3"/>
</svg>
