<svg width="3" height="15" viewBox="0 0 3 15" fill="none" xmlns="http://www.w3.org/2000/svg">
<path fill-rule="evenodd" clip-rule="evenodd" d="M1.5 3C2.325 3 3 2.325 3 1.5C3 0.675 2.325 0 1.5 0C0.675 0 0 0.675 0 1.5C0 2.325 0.675 3 1.5 3ZM3 7.33333C3 8.15833 2.325 8.83333 1.5 8.83333C0.675 8.83333 0 8.15833 0 7.33333C0 6.50833 0.675 5.83333 1.5 5.83333C2.325 5.83333 3 6.50833 3 7.33333ZM0 13.1667C0 12.3417 0.675 11.6667 1.5 11.6667C2.325 11.6667 3 12.3417 3 13.1667C3 13.9917 2.325 14.6667 1.5 14.6667C0.675 14.6667 0 13.9917 0 13.1667Z" fill="white"/>
<mask id="mask0" mask-type="alpha" maskUnits="userSpaceOnUse" x="0" y="0" width="3" height="15">
<path fill-rule="evenodd" clip-rule="evenodd" d="M1.5 3C2.325 3 3 2.325 3 1.5C3 0.675 2.325 0 1.5 0C0.675 0 0 0.675 0 1.5C0 2.325 0.675 3 1.5 3ZM3 7.33333C3 8.15833 2.325 8.83333 1.5 8.83333C0.675 8.83333 0 8.15833 0 7.33333C0 6.50833 0.675 5.83333 1.5 5.83333C2.325 5.83333 3 6.50833 3 7.33333ZM0 13.1667C0 12.3417 0.675 11.6667 1.5 11.6667C2.325 11.6667 3 12.3417 3 13.1667C3 13.9917 2.325 14.6667 1.5 14.6667C0.675 14.6667 0 13.9917 0 13.1667Z" fill="white"/>
</mask>
<g mask="url(#mask0)">
<rect x="-2" y="-3" width="7" height="20" fill="black"/>
<rect x="-1.5" y="-2.5" width="6" height="19" stroke="black"/>
</g>
</svg>
