<svg xmlns="http://www.w3.org/2000/svg" 
     width="22" height="22" viewBox="0 0 25 25" fill="none">
<path d="M22.8987 24.319H8.11234C6.94573 24.319 6 23.3733 6 22.2066V12.7011C6 11.5345 6.94573 10.5887 8.11234 10.5887H22.8987C24.0654 10.5887 25.0111 11.5345 25.0111 12.7011V22.2066C25.0111 23.3733 24.0654 24.319 22.8987 24.319Z" stroke="#FFFFFF" stroke-width="1.5"/>
<path d="M21.8426 10.5887V9.11349C21.8426 7.72562 20.527 6.71488 19.186 7.07248L7.56807 10.1706C6.64339 10.4172 6 11.2546 6 12.2116V12.7011" stroke="#FFFFFF" stroke-width="1.5"/>
<path d="M18.1617 15.1858C17.641 14.7052 16.7241 14.3709 15.8814 14.3499M15.8814 14.3499C14.8787 14.325 13.9811 14.7437 13.9811 15.8874C13.9811 17.9923 18.1617 16.9399 18.1617 19.0448C18.1617 20.2453 17.0491 20.7611 15.8814 20.7224M15.8814 14.3499V13.0809M13.6011 19.7464C14.0909 20.3493 15.0018 20.6932 15.8814 20.7224M15.8814 20.7224V22.2021" stroke="#FFFFFF" stroke-width="1.5" stroke-linecap="round" stroke-linejoin="round"/>
<g clip-path="url(#clip0_5254_10865)">
<path d="M6.49999 13.0834C9.03129 13.0834 11.0833 11.0313 11.0833 8.50002C11.0833 5.96872 9.03129 3.91669 6.49999 3.91669C3.96868 3.91669 1.91666 5.96872 1.91666 8.50002C1.91666 11.0313 3.96868 13.0834 6.49999 13.0834Z" fill="#FAA831" stroke="#FFFFFF" stroke-width="1.5" stroke-linecap="round" stroke-linejoin="round"/>
<path d="M6.5 5.75V8.5L8.33333 9.41667" stroke="#FFFFFF" stroke-width="1.5" stroke-linecap="round" stroke-linejoin="round"/>
</g>
<defs>
<clipPath id="clip0_5254_10865">
<rect width="11" height="11" fill="white" transform="translate(1 3)"/>
</clipPath>
</defs>
</svg>