<svg width="22" height="22" viewBox="0 0 22 22" fill="none" xmlns="http://www.w3.org/2000/svg">
<path d="M17.4167 7.33333H4.58337C3.06171 7.33333 1.83337 8.56167 1.83337 10.0833V15.5833H5.50004V19.25H16.5V15.5833H20.1667V10.0833C20.1667 8.56167 18.9384 7.33333 17.4167 7.33333ZM14.6667 17.4167H7.33337V12.8333H14.6667V17.4167ZM17.4167 11C16.9125 11 16.5 10.5875 16.5 10.0833C16.5 9.57917 16.9125 9.16667 17.4167 9.16667C17.9209 9.16667 18.3334 9.57917 18.3334 10.0833C18.3334 10.5875 17.9209 11 17.4167 11ZM16.5 2.75H5.50004V6.41667H16.5V2.75Z" fill="white"/>
</svg>
