<svg width="15" height="14" viewBox="0 0 15 14" fill="none" xmlns="http://www.w3.org/2000/svg">
<path d="M15.7029 9.8929L12.2667 8.58037C12.1199 8.52462 11.9567 8.51287 11.8018 8.5469C11.6469 8.58092 11.5085 8.65889 11.4076 8.76905L9.88585 10.4261C7.49758 9.42252 5.57557 7.70953 4.44953 5.58098L6.30878 4.22471C6.43263 4.13493 6.52029 4.01164 6.55849 3.87349C6.59669 3.73534 6.58334 3.58986 6.52048 3.45907L5.0478 0.396517C4.97881 0.255532 4.85678 0.140423 4.70275 0.0710381C4.54873 0.001653 4.37237 -0.017659 4.20408 0.016432L1.01329 0.672694C0.851039 0.706086 0.70628 0.787506 0.602638 0.903666C0.498995 1.01983 0.44259 1.16387 0.442627 1.31228C0.442627 8.32607 6.82115 14 14.6785 14C14.8451 14.0001 15.0067 13.9499 15.1371 13.8575C15.2675 13.7651 15.3589 13.636 15.3964 13.4914L16.1327 10.6476C16.1708 10.4969 16.1486 10.3391 16.0702 10.2013C15.9917 10.0636 15.8619 9.95451 15.7029 9.8929Z" fill="#8B94A3"/>
</svg>
