<svg width="73" height="66" viewBox="0 0 73 66" fill="none" xmlns="http://www.w3.org/2000/svg">
<path d="M63.4667 37.9812C61.7274 38.9405 10.6516 38.9405 8.90919 37.9812C7.16683 37.0219 7.16615 8.82784 8.90919 7.86482C10.6522 6.90179 61.7281 6.90176 63.4667 7.86482C65.2053 8.82788 65.206 37.022 63.4667 37.9812ZM1.89819 1.05789C-0.292577 2.46868 -0.292578 43.7968 0.434036 45.2028C1.16065 46.6088 22.4192 46.6098 23.513 47.2015C24.6068 47.7932 35.4521 65.0858 36.1899 65.084C36.9275 65.0822 47.7715 47.7896 48.8683 47.1996C49.9649 46.6096 71.2246 46.6096 71.9476 45.2026C72.6706 43.7956 72.6705 2.46747 70.4835 1.05771C68.2965 -0.352058 4.08852 -0.353079 1.90018 1.05771L1.89819 1.05789Z" fill="#0288D1"/>
</svg>
