<svg width="18" height="18" viewBox="0 0 18 18" fill="none" xmlns="http://www.w3.org/2000/svg">
<path d="M15.5 11.7026V16.5067C15.4998 16.7261 15.4125 16.9363 15.2574 17.0913C15.1022 17.2463 14.8918 17.3334 14.6725 17.3334H1.32752C1.21808 17.3327 1.10987 17.3103 1.00906 17.2678C0.908246 17.2252 0.816808 17.1631 0.739967 17.0852C0.663126 17.0073 0.602387 16.915 0.561216 16.8136C0.520046 16.7122 0.499252 16.6037 0.500021 16.4942V6.50008H5.50002C5.72103 6.50008 5.933 6.41228 6.08928 6.256C6.24556 6.09972 6.33335 5.88776 6.33335 5.66675V0.666748H14.6684C15.1275 0.666748 15.5 1.04591 15.5 1.49341V4.63091L8.00085 12.1309L7.99585 15.6626L11.5342 15.6676L15.5 11.7026ZM16.1484 6.34008L17.3267 7.51841L10.845 14.0001L9.66502 13.9984L9.66669 12.8217L16.1484 6.34008ZM0.500021 4.83342L4.66669 0.669248V4.83342H0.500021Z" fill="black"/>
</svg>
