<svg width="25" height="25" viewBox="0 0 25 25" fill="none" xmlns="http://www.w3.org/2000/svg">
<g clip-path="url(#clip0)">
<path d="M16.1458 16.6667H8.85417C7.41875 16.6667 6.25 15.499 6.25 14.0625C6.25 12.626 7.41875 11.4583 8.85417 11.4583H16.1458C17.5812 11.4583 18.75 12.626 18.75 14.0625C18.75 15.499 17.5812 16.6667 16.1458 16.6667ZM8.85417 12.5C7.99271 12.5 7.29167 13.201 7.29167 14.0625C7.29167 14.924 7.99271 15.625 8.85417 15.625H16.1458C17.0073 15.625 17.7083 14.924 17.7083 14.0625C17.7083 13.201 17.0073 12.5 16.1458 12.5H8.85417Z" fill="white"/>
<path d="M16.1458 12.5H8.85417C7.41875 12.5 6.25 11.3323 6.25 9.89584C6.25 8.45938 7.41875 7.29167 8.85417 7.29167H16.1458C17.5812 7.29167 18.75 8.45938 18.75 9.89584C18.75 11.3323 17.5812 12.5 16.1458 12.5ZM8.85417 8.33334C7.99271 8.33334 7.29167 9.03438 7.29167 9.89584C7.29167 10.7573 7.99271 11.4583 8.85417 11.4583H16.1458C17.0073 11.4583 17.7083 10.7573 17.7083 9.89584C17.7083 9.03438 17.0073 8.33334 16.1458 8.33334H8.85417Z" fill="white"/>
<path d="M9.89584 10.4167H8.85418C8.56668 10.4167 8.33334 10.1833 8.33334 9.89583C8.33334 9.60833 8.56668 9.375 8.85418 9.375H9.89584C10.1833 9.375 10.4167 9.60833 10.4167 9.89583C10.4167 10.1833 10.1833 10.4167 9.89584 10.4167Z" fill="white"/>
<path d="M9.89584 14.5833H8.85418C8.56668 14.5833 8.33334 14.35 8.33334 14.0625C8.33334 13.775 8.56668 13.5417 8.85418 13.5417H9.89584C10.1833 13.5417 10.4167 13.775 10.4167 14.0625C10.4167 14.35 10.1833 14.5833 9.89584 14.5833Z" fill="white"/>
<path d="M13.0208 10.4167H11.9792C11.6917 10.4167 11.4583 10.1833 11.4583 9.89583C11.4583 9.60833 11.6917 9.375 11.9792 9.375H13.0208C13.3083 9.375 13.5417 9.60833 13.5417 9.89583C13.5417 10.1833 13.3083 10.4167 13.0208 10.4167Z" fill="white"/>
<path d="M13.0208 14.5833H11.9792C11.6917 14.5833 11.4583 14.35 11.4583 14.0625C11.4583 13.775 11.6917 13.5417 11.9792 13.5417H13.0208C13.3083 13.5417 13.5417 13.775 13.5417 14.0625C13.5417 14.35 13.3083 14.5833 13.0208 14.5833Z" fill="white"/>
<path d="M12.5 22.9167C12.2125 22.9167 11.9792 22.6833 11.9792 22.3958C11.9792 22.1083 12.2125 21.875 12.5 21.875C18.2437 21.875 22.9166 17.2021 22.9166 11.4583C22.9166 11.1708 23.15 10.9375 23.4375 10.9375C23.725 10.9375 23.9583 11.1708 23.9583 11.4583C23.9583 17.776 18.8177 22.9167 12.5 22.9167Z" fill="white"/>
<path d="M22.8229 8.38542C22.6073 8.38542 22.4052 8.25 22.3302 8.03542C20.8823 3.85208 16.9312 1.04167 12.5 1.04167C10.1291 1.04167 7.90831 1.81979 6.07602 3.29062C5.85206 3.46979 5.5229 3.43542 5.34373 3.21146C5.16352 2.98646 5.19998 2.65938 5.42394 2.47917C7.44269 0.857292 9.88956 0 12.5 0C17.375 0 21.7219 3.09271 23.3156 7.69375C23.4094 7.96667 23.2656 8.2625 22.9937 8.35729C22.9375 8.37604 22.8791 8.38542 22.8229 8.38542V8.38542Z" fill="white"/>
<path d="M8.85419 22.2813C8.7969 22.2813 8.73856 22.2719 8.68127 22.2521C4.11252 20.65 1.04169 16.3125 1.04169 11.4583C1.04169 9.14583 1.72919 6.92604 3.02919 5.03854C3.19273 4.8 3.51565 4.74271 3.75315 4.90416C3.99065 5.06771 4.05002 5.39166 3.88648 5.62812C2.70731 7.34271 2.08335 9.35833 2.08335 11.4583C2.08335 15.8708 4.87398 19.8135 9.0271 21.2688C9.29794 21.3635 9.44065 21.6604 9.34585 21.9323C9.27085 22.1469 9.06981 22.2813 8.85419 22.2813V22.2813Z" fill="white"/>
<path d="M14.0625 25C13.9292 25 13.7958 24.949 13.6937 24.8479L11.6104 22.7646C11.4073 22.5615 11.4073 22.2313 11.6104 22.0281L13.6937 19.9448C13.8969 19.7417 14.2271 19.7417 14.4302 19.9448C14.6333 20.1479 14.6333 20.4781 14.4302 20.6813L12.7156 22.3958L14.4302 24.1104C14.6333 24.3136 14.6333 24.6438 14.4302 24.8469C14.3292 24.949 14.1958 25 14.0625 25V25Z" fill="white"/>
<path d="M4.3479 8.33334C4.11769 8.33334 3.90728 8.18021 3.84478 7.94792L3.17082 5.43229L0.655194 6.10625C0.378111 6.17604 0.0916527 6.01562 0.0176943 5.7375C-0.056264 5.45937 0.108319 5.175 0.386444 5.1L3.40519 4.29166C3.68332 4.22187 3.96874 4.38229 4.04269 4.65937L4.85103 7.67709C4.92603 7.95625 4.7604 8.24063 4.48332 8.31563C4.43749 8.32709 4.39269 8.33334 4.3479 8.33334V8.33334Z" fill="white"/>
<path d="M22.9167 8.95625C22.8281 8.95625 22.7385 8.93438 22.6562 8.88646L19.95 7.32396C19.701 7.18021 19.6156 6.8625 19.7594 6.6125C19.9031 6.36354 20.2208 6.27708 20.4708 6.42187L22.726 7.72396L24.0281 5.46875C24.1719 5.21979 24.4896 5.13333 24.7396 5.27812C24.9885 5.42187 25.074 5.73958 24.9302 5.98958L23.3677 8.69583C23.2708 8.8625 23.0958 8.95625 22.9167 8.95625Z" fill="white"/>
</g>
<defs>
<clipPath id="clip0">
<rect width="25" height="25" fill="white"/>
</clipPath>
</defs>
</svg>
