<svg width="25" height="25" viewBox="0 0 25 25" fill="none" xmlns="http://www.w3.org/2000/svg">
<g clip-path="url(#clip0)">
<path d="M13.486 1.76675H8.74561C8.54336 1.76675 8.37939 1.93067 8.37939 2.13297V3.89971C8.37939 4.10201 8.54336 4.26592 8.74561 4.26592H13.486C13.6883 4.26592 13.8522 4.10201 13.8522 3.89971V2.13297C13.8522 1.93067 13.6883 1.76675 13.486 1.76675ZM13.1198 3.53345H9.11182V2.49918H13.1198V3.53345Z" fill="white"/>
<path d="M11.9128 5.66641C11.9128 5.86871 12.0768 6.03262 12.2791 6.03262H16.2542C16.4564 6.03262 16.6204 5.86871 16.6204 5.66641C16.6204 5.46412 16.4564 5.3002 16.2542 5.3002H12.2791C12.0768 5.3002 11.9128 5.46412 11.9128 5.66641V5.66641Z" fill="white"/>
<path d="M8.74561 6.03262H10.5124C10.7146 6.03262 10.8786 5.86871 10.8786 5.66641C10.8786 5.46412 10.7146 5.3002 10.5124 5.3002H8.74561C8.54336 5.3002 8.37939 5.46412 8.37939 5.66641C8.37939 5.86871 8.54336 6.03262 8.74561 6.03262Z" fill="white"/>
<path d="M19.7412 11.004C19.7473 10.9324 19.7504 10.8605 19.7504 10.7886C19.7504 9.81812 19.1957 8.97534 18.3871 8.55894V3.47363C18.3871 3.38911 18.3803 3.30962 18.3663 3.23071C18.3166 2.92803 18.1748 2.65254 17.9561 2.43394L15.9532 0.431006C15.7346 0.212353 15.4592 0.0706055 15.1565 0.0208984C15.0777 0.00683594 14.9981 0 14.9135 0H8.08291C7.27221 0 6.61269 0.65957 6.61269 1.47021V4.81201C6.61269 5.01431 6.77666 5.17822 6.9789 5.17822C7.18115 5.17822 7.34511 5.01431 7.34511 4.81201V1.47021C7.34511 1.06338 7.67607 0.732422 8.08291 0.732422H14.7286V2.74023C14.7286 3.24658 15.1405 3.65859 15.6469 3.65859H17.6547V8.31606C17.5209 8.2939 17.3836 8.28179 17.2436 8.28179C16.9418 8.28179 16.6494 8.33423 16.371 8.43804C16.0701 8.19414 15.7484 7.98076 15.4108 7.79937H16.2542C16.4564 7.79937 16.6204 7.63545 16.6204 7.43315C16.6204 7.23086 16.4564 7.06694 16.2542 7.06694H14.4875C14.3351 7.06694 14.2046 7.16001 14.1494 7.29233C13.6165 7.14404 13.0619 7.06694 12.4999 7.06694H8.7456C8.54336 7.06694 8.37939 7.23086 8.37939 7.43315C8.37939 7.63545 8.54336 7.79937 8.7456 7.79937H9.58852C8.68852 8.28296 7.91367 8.98877 7.34511 9.86177V6.521C7.34511 6.3187 7.18115 6.15479 6.9789 6.15479C6.77666 6.15479 6.61269 6.3187 6.61269 6.521V10.5832C5.66264 10.7166 4.78569 11.1533 4.09912 11.8458C3.27407 12.678 2.81967 13.7816 2.81967 14.9536C2.81967 16.0635 3.233 17.1246 3.98354 17.9411C4.65292 18.6693 5.53793 19.1464 6.50307 19.3077V19.8601C6.50307 20.0164 6.60234 20.1556 6.75024 20.2064L8.08056 20.6637C8.19277 20.6997 8.2541 20.8501 8.20083 20.954L7.58349 22.2181C7.51489 22.3585 7.54301 22.5271 7.65361 22.6377L8.86533 23.8495C8.97588 23.9601 9.14443 23.9882 9.28496 23.9196L10.5491 23.3022C10.6548 23.2482 10.8032 23.3114 10.8394 23.4225L11.2966 24.7528C11.3475 24.9007 11.4866 25 11.643 25H13.3566C13.513 25 13.6521 24.9007 13.703 24.7528L14.1603 23.4225C14.1951 23.312 14.3471 23.2483 14.4506 23.3022L15.7146 23.9196C15.8551 23.9881 16.0237 23.96 16.1343 23.8495L17.346 22.6377C17.4566 22.5271 17.4847 22.3585 17.4161 22.2181L16.7988 20.954C16.7454 20.8519 16.8076 20.6985 16.919 20.6637L18.2494 20.2064C18.3973 20.1556 18.4965 20.0164 18.4965 19.8601V19.3087C19.2456 19.1838 19.947 18.8684 20.5419 18.386C20.699 18.2586 20.7231 18.028 20.5958 17.8709C20.4684 17.7138 20.2377 17.6897 20.0807 17.8171C19.6169 18.1931 19.0754 18.4475 18.4966 18.5641V18.1464C18.4966 17.99 18.3973 17.8509 18.2494 17.8L16.919 17.3427C16.8068 17.3067 16.7455 17.1563 16.7988 17.0524L17.4161 15.7883C17.4847 15.6478 17.4566 15.4792 17.346 15.3687L16.1343 14.157C16.0237 14.0464 15.8551 14.0183 15.7146 14.0869L14.4506 14.7042C14.3448 14.7582 14.1965 14.6951 14.1603 14.5839L13.703 13.2536C13.6521 13.1057 13.513 13.0064 13.3566 13.0064H11.6431C11.4867 13.0064 11.3476 13.1057 11.2967 13.2536L10.8395 14.5839C10.804 14.6953 10.6527 14.7579 10.5491 14.7042L9.28506 14.0869C9.14463 14.0184 8.97602 14.0464 8.86543 14.157L7.65371 15.3687C7.54311 15.4793 7.51499 15.6479 7.58359 15.7884L8.20092 17.0524C8.25454 17.1562 8.19199 17.3074 8.08066 17.3428L6.75029 17.8001C6.60244 17.8509 6.50312 17.9901 6.50312 18.1464V18.5632C5.74555 18.4104 5.05317 18.0225 4.5228 17.4455C3.89687 16.7646 3.55214 15.8796 3.55214 14.9537C3.55214 12.9424 5.18842 11.2905 7.19965 11.2715C7.34399 11.2702 7.47407 11.1841 7.53178 11.0519C8.39463 9.07607 10.3447 7.79941 12.4999 7.79941C13.8128 7.79941 15.0794 8.2751 16.0664 9.13892C16.1772 9.23599 16.3354 9.25713 16.4679 9.19263C16.7109 9.07427 16.9719 9.01431 17.2436 9.01431C18.222 9.01431 19.018 9.8103 19.018 10.7887C19.018 10.9099 19.0058 11.0309 18.9815 11.1485C18.9464 11.3195 19.0368 11.4916 19.1976 11.5596C20.5645 12.1376 21.4477 13.4699 21.4477 14.9538C21.4477 15.5384 21.3149 16.0967 21.0531 16.6134C20.9617 16.7938 21.0338 17.0142 21.2143 17.1056C21.3946 17.197 21.6151 17.125 21.7065 16.9444C22.0208 16.3242 22.1801 15.6544 22.1801 14.9537C22.1801 13.2702 21.2318 11.7495 19.7412 11.004V11.004ZM15.461 2.74023V0.974609L17.4126 2.92617H15.6469C15.5444 2.92617 15.461 2.84277 15.461 2.74023V2.74023ZM7.23554 18.4078L8.31875 18.0354C8.57109 17.9486 8.77509 17.7557 8.88017 17.5016C8.98388 17.2518 8.97617 16.9709 8.85898 16.731L8.35639 15.7018L9.19853 14.8597L10.2277 15.3624C10.4667 15.4791 10.7463 15.4873 10.9985 15.3834C10.9999 15.3829 11.0013 15.3824 11.0027 15.3817C11.2524 15.2784 11.4454 15.0744 11.5322 14.8221L11.9045 13.7389H13.0955L13.4678 14.822C13.5545 15.0744 13.7475 15.2784 13.9972 15.3817C13.9988 15.3824 14.0004 15.3831 14.0021 15.3837C14.2518 15.4872 14.5325 15.4794 14.7722 15.3624L15.8014 14.8597L16.6436 15.7018L16.141 16.731C16.0238 16.9709 16.0161 17.2518 16.1191 17.4999L16.1216 17.5059C16.2249 17.7556 16.4289 17.9486 16.6813 18.0354L17.7645 18.4078V19.5987L16.6813 19.971C16.1609 20.1388 15.8917 20.789 16.141 21.2754L16.6436 22.3046L15.8015 23.1468L14.7724 22.6442C14.5325 22.5269 14.2516 22.5191 13.9974 22.6248C13.7476 22.728 13.5546 22.932 13.4678 23.1844L13.0954 24.2676H11.9044L11.5321 23.1844C11.4453 22.932 11.2523 22.728 10.9982 22.6229C10.7483 22.5191 10.4674 22.527 10.2276 22.6441L9.19843 23.1468L8.3563 22.3046L8.85888 21.2754C8.97602 21.0355 8.98379 20.7546 8.88076 20.5066L8.87827 20.5005C8.77495 20.2508 8.57099 20.0579 8.3186 19.971L7.2354 19.5987V18.4078H7.23554Z" fill="white"/>
<path d="M14.0047 15.3848C14.0038 15.3844 14.0029 15.384 14.002 15.3837C14.0018 15.3836 14.0017 15.3836 14.0016 15.3835L14.0047 15.3848Z" fill="white"/>
<path d="M12.4999 21.8174C14.0518 21.8174 15.3144 20.555 15.3144 19.0034C15.3144 17.4515 14.0518 16.1889 12.4999 16.1889C12.2887 16.1889 12.0793 16.2122 11.8776 16.2582C11.6804 16.303 11.5569 16.4993 11.6018 16.6965C11.6467 16.8938 11.8429 17.0173 12.0402 16.9723C12.1887 16.9385 12.3433 16.9213 12.4999 16.9213C13.523 16.9213 14.3754 17.6633 14.549 18.6372H10.4501C10.5066 18.3165 10.6374 18.0148 10.837 17.7505C10.9589 17.5892 10.927 17.3595 10.7656 17.2376C10.6042 17.1156 10.3746 17.1477 10.2527 17.309C9.8816 17.8001 9.6855 18.386 9.6855 19.0034C9.68545 20.5551 10.948 21.8174 12.4999 21.8174V21.8174ZM12.4999 21.085C11.4769 21.085 10.6245 20.3433 10.4508 19.3696H14.549C14.3753 20.3433 13.5229 21.085 12.4999 21.085Z" fill="white"/>
<path d="M3.0289 8.55922C3.0289 8.76152 3.19286 8.92543 3.39511 8.92543H5.22846C5.43071 8.92543 5.59467 8.76152 5.59467 8.55922C5.59467 8.35693 5.43071 8.19301 5.22846 8.19301H3.76132V4.59438L4.12265 4.95571C4.19413 5.02724 4.28788 5.06298 4.38159 5.06298C4.47529 5.06298 4.56904 5.02724 4.64052 4.95576C4.78354 4.81274 4.78354 4.58085 4.64052 4.43788L3.65405 3.45136C3.58539 3.38266 3.49223 3.34409 3.39511 3.34409C3.29799 3.34409 3.20483 3.38266 3.13618 3.45136L2.14965 4.43788C2.00663 4.5809 2.00663 4.81279 2.14965 4.95576C2.29267 5.09872 2.52455 5.09877 2.66752 4.95571L3.02885 4.59438V8.55922H3.0289Z" fill="white"/>
<path d="M22.8503 7.31377C22.7073 7.1708 22.4754 7.1708 22.3325 7.31377L21.9711 7.67509V3.71025C21.9711 3.50796 21.8072 3.34404 21.6049 3.34404H19.7716C19.5693 3.34404 19.4054 3.50796 19.4054 3.71025C19.4054 3.91255 19.5693 4.07646 19.7716 4.07646H21.2387V7.67509L20.8774 7.31377C20.7344 7.1708 20.5025 7.1708 20.3595 7.31377C20.2165 7.45683 20.2165 7.68867 20.3595 7.83169L21.346 8.81816C21.4175 8.88964 21.5112 8.92539 21.6049 8.92539C21.6986 8.92539 21.7924 8.88964 21.8639 8.81816L22.8503 7.83169C22.9934 7.68867 22.9934 7.45683 22.8503 7.31377Z" fill="white"/>
</g>
<defs>
<clipPath id="clip0">
<rect width="25" height="25" fill="white"/>
</clipPath>
</defs>
</svg>
