<svg xmlns="http://www.w3.org/2000/svg" width="15" height="15" viewBox="0 0 15 15" fill="none">
<path fill-rule="evenodd" clip-rule="evenodd" d="M11.3455 6.60847L11.9592 7.22224L7.22729 11.9542C6.81151 12.37 6.32809 12.6521 5.77701 12.8006C5.22594 12.9491 4.67487 12.9524 4.1238 12.8105C3.57272 12.6686 3.0926 12.3931 2.68342 11.9839C2.27424 11.5747 1.99706 11.0929 1.85186 10.5386C1.70667 9.98419 1.70502 9.42818 1.84692 8.8705C1.98881 8.31283 2.26764 7.82611 2.68342 7.41033L7.82126 2.27249C8.11825 1.9755 8.46967 1.77587 8.87556 1.67357C9.28144 1.57128 9.68731 1.57128 10.0932 1.67357C10.4991 1.77587 10.8505 1.9755 11.1475 2.27249C11.4445 2.56948 11.6441 2.91761 11.7464 3.31689C11.8487 3.71617 11.8454 4.11874 11.7365 4.52463C11.6276 4.93051 11.4247 5.28194 11.1277 5.57892L6.80161 9.905C6.61682 10.0898 6.39903 10.2152 6.14825 10.2812C5.89746 10.3472 5.64832 10.3488 5.40083 10.2861C5.15334 10.2234 4.93721 10.0997 4.75242 9.9149C4.56763 9.73011 4.44058 9.51067 4.37129 9.25658C4.30199 9.00249 4.29869 8.74841 4.36139 8.49432C4.42408 8.24023 4.54783 8.0208 4.73262 7.83601L8.65282 3.91581L9.27649 4.53947L5.35629 8.45967C5.23749 8.57847 5.18139 8.71706 5.18799 8.87545C5.19459 9.03385 5.25729 9.17244 5.37608 9.29123C5.49488 9.41003 5.63017 9.46942 5.78196 9.46942C5.93376 9.46942 6.06905 9.41003 6.18784 9.29123L10.5139 4.96515C10.6987 4.78036 10.8258 4.56092 10.8951 4.30684C10.9643 4.05275 10.9676 3.79866 10.905 3.54458C10.8423 3.29049 10.7185 3.07105 10.5337 2.88626C10.3489 2.70147 10.1295 2.57772 9.87541 2.51503C9.62132 2.45233 9.36558 2.45398 9.10819 2.51998C8.85081 2.58597 8.62972 2.71137 8.44493 2.89616L3.30709 8.034C3.0101 8.33098 2.80882 8.68406 2.70322 9.09324C2.59763 9.50242 2.59598 9.90995 2.69827 10.3158C2.80057 10.7217 3.0002 11.0731 3.29719 11.3701C3.59418 11.6671 3.94396 11.8651 4.34654 11.9641C4.74912 12.0631 5.15334 12.0581 5.55923 11.9492C5.96511 11.8404 6.31654 11.6374 6.61352 11.3404L11.3455 6.60847Z" fill="#45AAF2"/>
</svg>