<svg width="9" height="10" viewBox="0 0 9 10" fill="none" xmlns="http://www.w3.org/2000/svg">
<path d="M3.75 4V0.625C3.75 0.279822 4.02982 0 4.375 0V0C4.72018 0 5 0.279822 5 0.625V4H8.08333C8.45152 4 8.75 4.29848 8.75 4.66667V4.66667C8.75 5.03486 8.45152 5.33333 8.08333 5.33333H5V8.70833C5 9.05351 4.72018 9.33333 4.375 9.33333V9.33333C4.02982 9.33333 3.75 9.05351 3.75 8.70833V5.33333H0.666666C0.298477 5.33333 0 5.03486 0 4.66667V4.66667C0 4.29848 0.298477 4 0.666667 4H3.75Z" fill="white"/>
</svg>
