<svg width="12" height="12" viewBox="0 0 12 12" fill="none" xmlns="http://www.w3.org/2000/svg">
<path d="M5.16669 5.16663V0.99996C5.16669 0.539722 5.53978 0.166626 6.00002 0.166626C6.46026 0.166626 6.83335 0.539722 6.83335 0.99996V5.16663H11C11.4603 5.16663 11.8334 5.53972 11.8334 5.99996C11.8334 6.4602 11.4603 6.83329 11 6.83329H6.83335V11C6.83335 11.4602 6.46026 11.8333 6.00002 11.8333C5.53978 11.8333 5.16669 11.4602 5.16669 11V6.83329H1.00002C0.539783 6.83329 0.166687 6.4602 0.166687 5.99996C0.166687 5.53972 0.539783 5.16663 1.00002 5.16663H5.16669Z" fill="black"/>
</svg>
