<svg width="17" height="17" viewBox="0 0 17 17" fill="none" xmlns="http://www.w3.org/2000/svg">
<path fill-rule="evenodd" clip-rule="evenodd" d="M11.5355 1.41663H13.8494C14.8067 1.41663 15.5833 2.19997 15.5833 3.16634V5.49953C15.5833 6.46517 14.8067 7.24924 13.8494 7.24924H11.5355C10.5775 7.24924 9.80088 6.46517 9.80088 5.49953V3.16634C9.80088 2.19997 10.5775 1.41663 11.5355 1.41663ZM3.15128 1.41663H5.46439C6.42244 1.41663 7.19904 2.19997 7.19904 3.16634V5.49953C7.19904 6.46517 6.42244 7.24924 5.46439 7.24924H3.15128C2.19323 7.24924 1.41663 6.46517 1.41663 5.49953V3.16634C1.41663 2.19997 2.19323 1.41663 3.15128 1.41663ZM3.15128 9.75067H5.46439C6.42244 9.75067 7.19904 10.534 7.19904 11.5011V13.8336C7.19904 14.7999 6.42244 15.5833 5.46439 15.5833H3.15128C2.19323 15.5833 1.41663 14.7999 1.41663 13.8336V11.5011C1.41663 10.534 2.19323 9.75067 3.15128 9.75067ZM11.5355 9.75067H13.8494C14.8067 9.75067 15.5833 10.534 15.5833 11.5011V13.8336C15.5833 14.7999 14.8067 15.5833 13.8494 15.5833H11.5355C10.5775 15.5833 9.80088 14.7999 9.80088 13.8336V11.5011C9.80088 10.534 10.5775 9.75067 11.5355 9.75067Z" stroke="white" stroke-opacity="0.7" stroke-linecap="round" stroke-linejoin="round" stroke-width="1.2"/>
</svg>
