<svg width="13" height="17" viewBox="0 0 13 17" fill="none" xmlns="http://www.w3.org/2000/svg">
<path d="M5.14408 6.44222C5.14408 6.27274 5.07872 6.11365 4.9594 5.99407L3.01076 4.04265C2.91196 3.94359 2.91196 3.78323 3.01102 3.68443L4.96219 1.7358C5.20919 1.48905 5.20944 1.08701 4.9627 0.839755C4.84287 0.719929 4.68378 0.653809 4.5143 0.653809C4.34507 0.653809 4.18623 0.719422 4.06666 0.838742L1.48772 3.41438C1.24047 3.66138 1.24022 4.06317 1.48722 4.31042L4.06286 6.88961C4.302 7.12926 4.7195 7.12926 4.95864 6.89011C5.07796 6.77054 5.14383 6.6117 5.14408 6.44222Z" fill="black"/>
<path d="M0.606364 10.965C0.427257 11.0075 0.272724 11.1243 0.182031 11.2849C0.0923506 11.444 0.0728439 11.6343 0.128324 11.807C0.999284 14.522 3.50019 16.346 6.35146 16.3463L6.35196 16.5996V16.3463C7.00328 16.3463 7.6541 16.248 8.28616 16.0544C11.4323 15.0897 13.3741 11.9182 12.8028 8.6771C12.2589 5.59175 9.59818 3.31302 6.47584 3.2583C6.25772 3.2583 6.06392 3.35001 5.93472 3.51645C5.80932 3.67807 5.76651 3.88479 5.81743 4.08315C5.8909 4.36993 6.14676 4.57361 6.43987 4.57817C9.02134 4.61997 11.215 6.58963 11.542 9.16021C11.8473 11.5593 10.4175 13.8937 8.14176 14.7115C7.56188 14.92 6.96148 15.0256 6.35678 15.0256C4.08108 15.0256 2.08355 13.5718 1.38638 11.4075C1.29746 11.1319 1.04514 10.947 0.758364 10.947C0.707191 10.947 0.656271 10.953 0.606364 10.965Z" fill="black"/>
</svg>
