<svg width="17" height="17" viewBox="0 0 17 17" fill="none" xmlns="http://www.w3.org/2000/svg">
<path d="M0.739125 1.49126L15.552 16.3042C16.0519 16.804 16.801 16.0539 16.3012 15.554L1.48825 0.742132C0.904483 0.158382 0.164836 0.916974 0.739125 1.49126ZM8.51859 1.11619C6.85765 1.11619 5.32838 1.67159 4.09208 2.59789L7.29727 5.80309C7.6708 5.63423 8.08351 5.53753 8.51859 5.53753C10.1611 5.53753 11.5058 6.87814 11.5058 8.52058C11.5058 8.95635 11.409 9.36955 11.2392 9.74398L14.4444 12.9471C15.3705 11.7103 15.9261 10.1807 15.9261 8.52058C15.9261 4.43637 12.6028 1.11619 8.51859 1.11619ZM11.8416 4.21702L12.8222 5.20172C13.4009 5.69747 12.5719 6.52646 12.0761 5.94774L11.0914 4.96717C10.4896 4.36533 11.3371 3.71259 11.8416 4.21702ZM2.5949 4.09715C1.66969 5.33304 1.11421 6.86073 1.11421 8.52059C1.11421 12.6048 4.43438 15.9291 8.51859 15.9291C10.1788 15.9291 11.7074 15.3728 12.9441 14.4464L9.74096 11.2433C9.36699 11.4127 8.95385 11.5088 8.51859 11.5088C6.87616 11.5088 5.53454 10.163 5.53454 8.52059C5.53454 8.08636 5.63071 7.67419 5.79902 7.30132L2.5949 4.09715ZM4.96418 10.6068L5.94473 11.5863C6.46527 12.0835 5.69878 12.8542 5.1987 12.3365L4.21502 11.3528C3.66432 10.8041 4.37886 10.0875 4.96418 10.6068Z" fill="black"/>
</svg>
