<svg width="16" height="14" viewBox="0 0 16 14" fill="none" xmlns="http://www.w3.org/2000/svg">
<path d="M7.78804 4.00735L2.66666 8.22541V12.7779C2.66666 12.8958 2.71348 13.0088 2.79683 13.0922C2.88018 13.1755 2.99323 13.2224 3.1111 13.2224L6.22388 13.2143C6.34137 13.2137 6.45384 13.1666 6.53671 13.0833C6.61958 13.0001 6.6661 12.8873 6.6661 12.7699V10.1112C6.6661 9.99337 6.71292 9.88032 6.79627 9.79697C6.87962 9.71362 6.99267 9.6668 7.11054 9.6668H8.88832C9.0062 9.6668 9.11924 9.71362 9.20259 9.79697C9.28594 9.88032 9.33277 9.99337 9.33277 10.1112V12.7679C9.33258 12.8264 9.34394 12.8843 9.3662 12.9384C9.38845 12.9925 9.42116 13.0417 9.46245 13.0831C9.50374 13.1245 9.55279 13.1574 9.60681 13.1798C9.66082 13.2022 9.71873 13.2137 9.77721 13.2137L12.8889 13.2224C13.0068 13.2224 13.1198 13.1755 13.2031 13.0922C13.2865 13.0088 13.3333 12.8958 13.3333 12.7779V8.22235L8.21304 4.00735C8.15285 3.95883 8.07786 3.93237 8.00054 3.93237C7.92323 3.93237 7.84824 3.95883 7.78804 4.00735ZM15.8778 6.8743L13.5555 4.96013V1.11263C13.5555 1.02422 13.5204 0.93944 13.4579 0.876928C13.3954 0.814416 13.3106 0.779297 13.2222 0.779297H11.6667C11.5782 0.779297 11.4935 0.814416 11.431 0.876928C11.3684 0.93944 11.3333 1.02422 11.3333 1.11263V3.12957L8.84638 1.08346C8.60771 0.887069 8.30824 0.779689 7.99916 0.779689C7.69007 0.779689 7.3906 0.887069 7.15193 1.08346L0.120545 6.8743C0.0867912 6.90219 0.0588655 6.93647 0.0383633 6.97516C0.0178611 7.01386 0.00518408 7.05621 0.00105669 7.09981C-0.00307071 7.14341 0.00143238 7.18739 0.0143086 7.22924C0.0271849 7.2711 0.048182 7.31 0.0761002 7.34374L0.784433 8.20485C0.812276 8.23871 0.846521 8.26674 0.885211 8.28734C0.9239 8.30794 0.966273 8.32071 1.0099 8.32492C1.05353 8.32912 1.09757 8.32468 1.13948 8.31185C1.18139 8.29902 1.22036 8.27804 1.25416 8.25013L7.78804 2.86846C7.84824 2.81994 7.92323 2.79348 8.00054 2.79348C8.07786 2.79348 8.15285 2.81994 8.21304 2.86846L14.7472 8.25013C14.7809 8.27805 14.8199 8.29905 14.8617 8.31192C14.9036 8.3248 14.9475 8.3293 14.9911 8.32517C15.0347 8.32105 15.0771 8.30837 15.1158 8.28787C15.1545 8.26736 15.1888 8.23944 15.2167 8.20569L15.925 7.34457C15.9529 7.31064 15.9738 7.27153 15.9865 7.2295C15.9992 7.18746 16.0035 7.14332 15.9991 7.09962C15.9947 7.05592 15.9818 7.01351 15.9609 6.97484C15.9401 6.93618 15.9118 6.90201 15.8778 6.8743Z" fill="#617F9E"/>
</svg>
