<svg width="13" height="13" viewBox="0 0 13 13" fill="none" xmlns="http://www.w3.org/2000/svg">
<path d="M11.5 2.125H1.5V10.875L7.3075 5.06625C7.42471 4.94908 7.58365 4.88326 7.74938 4.88326C7.9151 4.88326 8.07405 4.94908 8.19125 5.06625L11.5 8.38125V2.125ZM0.25 1.49563C0.251144 1.33149 0.316813 1.17439 0.432821 1.05826C0.548828 0.942136 0.705863 0.876309 0.87 0.875H12.13C12.4725 0.875 12.75 1.15313 12.75 1.49563V11.5044C12.7489 11.6685 12.6832 11.8256 12.5672 11.9417C12.4512 12.0579 12.2941 12.1237 12.13 12.125H0.87C0.705508 12.1248 0.547811 12.0594 0.431556 11.943C0.315301 11.8266 0.25 11.6689 0.25 11.5044V1.49563ZM4 5.875C3.66848 5.875 3.35054 5.7433 3.11612 5.50888C2.8817 5.27446 2.75 4.95652 2.75 4.625C2.75 4.29348 2.8817 3.97554 3.11612 3.74112C3.35054 3.5067 3.66848 3.375 4 3.375C4.33152 3.375 4.64946 3.5067 4.88388 3.74112C5.1183 3.97554 5.25 4.29348 5.25 4.625C5.25 4.95652 5.1183 5.27446 4.88388 5.50888C4.64946 5.7433 4.33152 5.875 4 5.875Z" fill="black"/>
</svg>
