<svg width="15" height="15" viewBox="0 0 15 15" fill="none" xmlns="http://www.w3.org/2000/svg">
<path d="M12.5 3.125H2.50001V11.875L8.30751 6.06625C8.42472 5.94908 8.58366 5.88326 8.74939 5.88326C8.91511 5.88326 9.07406 5.94908 9.19126 6.06625L12.5 9.38125V3.125ZM1.25001 2.49563C1.25115 2.33149 1.31682 2.17439 1.43283 2.05826C1.54884 1.94214 1.70587 1.87631 1.87001 1.875H13.13C13.4725 1.875 13.75 2.15313 13.75 2.49563V12.5044C13.7489 12.6685 13.6832 12.8256 13.5672 12.9417C13.4512 13.0579 13.2941 13.1237 13.13 13.125H1.87001C1.70552 13.1248 1.54782 13.0594 1.43157 12.943C1.31531 12.8266 1.25001 12.6689 1.25001 12.5044V2.49563ZM5.00001 6.875C4.66849 6.875 4.35055 6.7433 4.11613 6.50888C3.88171 6.27446 3.75001 5.95652 3.75001 5.625C3.75001 5.29348 3.88171 4.97554 4.11613 4.74112C4.35055 4.5067 4.66849 4.375 5.00001 4.375C5.33153 4.375 5.64947 4.5067 5.88389 4.74112C6.11831 4.97554 6.25001 5.29348 6.25001 5.625C6.25001 5.95652 6.11831 6.27446 5.88389 6.50888C5.64947 6.7433 5.33153 6.875 5.00001 6.875Z" fill="white"/>
</svg>
