<svg width="18" height="18" viewBox="0 0 18 18" fill="none" xmlns="http://www.w3.org/2000/svg">
<path d="M8.99945 1.125C5.6415 1.125 2.7749 3.22748 1.64262 6.1875H2.8604C3.19072 5.46736 3.6499 4.8041 4.22685 4.22712C5.50172 2.95218 7.19667 2.25 8.99945 2.25C10.8025 2.25 12.4976 2.95218 13.7726 4.22715C15.0477 5.50213 15.7499 7.19715 15.7499 9C15.7499 10.803 15.0477 12.4981 13.7727 13.773C12.4977 15.0479 10.8025 15.75 8.99945 15.75C7.1966 15.75 5.50165 15.0479 4.22681 13.773C3.64983 13.196 3.19065 12.5327 2.86025 11.8125H1.64255C2.77479 14.7727 5.64143 16.875 8.99949 16.875C13.3488 16.875 16.8749 13.3494 16.8749 9C16.8749 4.6511 13.3488 1.125 8.99945 1.125Z" fill="white" fill-opacity="0.7"/>
<path d="M7.27253 11.3865L8.06801 12.182L11.25 8.99999L8.06801 5.81799L7.27249 6.61351L9.0965 8.43749H1.125V9.56249H9.0965L7.27253 11.3865Z" fill="white" fill-opacity="0.7"/>
</svg>
