<svg width="14" height="14" viewBox="0 0 14 14" fill="none" xmlns="http://www.w3.org/2000/svg">
<path d="M6.99967 0.333252C10.6817 0.333252 13.6663 3.31792 13.6663 6.99992C13.6663 10.6819 10.6817 13.6666 6.99967 13.6666C3.31767 13.6666 0.333008 10.6819 0.333008 6.99992C0.333008 3.31792 3.31767 0.333252 6.99967 0.333252ZM6.99967 3.66659C6.87885 3.66659 6.76211 3.71035 6.67105 3.78976C6.58 3.86918 6.52077 3.97888 6.50434 4.09859L6.49967 4.16659V6.49992H4.16634C4.03966 6.49996 3.91771 6.54808 3.82515 6.63457C3.73258 6.72105 3.67629 6.83945 3.66766 6.96584C3.65902 7.09223 3.69868 7.21718 3.77863 7.31545C3.85857 7.41372 3.97284 7.47798 4.09834 7.49525L4.16634 7.49992H6.49967V9.83325C6.49971 9.95993 6.54784 10.0819 6.63432 10.1744C6.72081 10.267 6.83921 10.3233 6.96559 10.3319C7.09198 10.3406 7.21694 10.3009 7.31521 10.221C7.41348 10.141 7.47774 10.0268 7.49501 9.90125L7.49967 9.83325V7.49992H9.83301C9.95969 7.49988 10.0816 7.45176 10.1742 7.36527C10.2668 7.27878 10.3231 7.16039 10.3317 7.034C10.3403 6.90761 10.3007 6.78266 10.2207 6.68439C10.1408 6.58611 10.0265 6.52185 9.90101 6.50459L9.83301 6.49992H7.49967V4.16659C7.49967 4.03398 7.447 3.9068 7.35323 3.81303C7.25946 3.71926 7.13228 3.66659 6.99967 3.66659Z" fill="#007EC6"/>
</svg>
