<svg width="15" height="10" viewBox="0 0 10 10" fill="none" xmlns="http://www.w3.org/2000/svg">
<path d="M5.49197 5.67414L2.86641 4.90591C2.56252 4.8184 2.35102 4.53396 2.35102 4.21792C2.35102 3.82165 2.67192 3.50075 3.06819 3.50075H4.67999C4.97658 3.50075 5.26831 3.5907 5.51142 3.75602C5.65972 3.85569 5.85907 3.83138 5.98548 3.70739L6.8315 2.88083C7.0041 2.71308 6.97979 2.43351 6.78774 2.28521C6.19212 1.81845 5.44821 1.55832 4.68485 1.55589V0.388972C4.68485 0.175038 4.50982 0 4.29588 0H3.51794C3.304 0 3.12896 0.175038 3.12896 0.388972V1.55589H3.06819C1.51959 1.55589 0.27488 2.88569 0.418313 4.46346C0.520418 5.58419 1.37616 6.49584 2.45556 6.81188L4.94741 7.5412C5.2513 7.63115 5.4628 7.91316 5.4628 8.2292C5.4628 8.62546 5.1419 8.94637 4.74563 8.94637H3.13383C2.83724 8.94637 2.54551 8.85642 2.3024 8.6911C2.1541 8.59143 1.95475 8.61574 1.82834 8.73972L0.982323 9.56629C0.809717 9.73404 0.834027 10.0136 1.02608 10.1619C1.6217 10.6287 2.36561 10.8888 3.12896 10.8912V12.0581C3.12896 12.2721 3.304 12.4471 3.51794 12.4471H4.29588C4.50982 12.4471 4.68485 12.2721 4.68485 12.0581V10.8864C5.81774 10.8645 6.88012 10.1911 7.2545 9.11897C7.77719 7.62143 6.89957 6.08499 5.49197 5.67414Z" fill="#CED4DA"/>
</svg>
