<svg width="40" height="40" viewBox="0 0 40 40" fill="none" xmlns="http://www.w3.org/2000/svg">
<circle cx="20" cy="20" r="20" fill="white"/>
<path d="M10.9375 14.9565V13.522C10.9375 12.9686 11.1532 12.4379 11.5371 12.0467C11.921 11.6554 12.4416 11.4355 12.9845 11.4355H20.1491H27.3138C27.8567 11.4355 28.3773 11.6554 28.7612 12.0467C29.1451 12.4379 29.3608 12.9686 29.3608 13.522V14.9565M10.9375 26.6928V28.1273C10.9375 28.6807 11.1532 29.2114 11.5371 29.6026C11.921 29.9939 12.4416 30.2138 12.9845 30.2138H20.1491H27.3138C27.8567 30.2138 28.3773 29.9939 28.7612 29.6026C29.1451 29.2114 29.3608 28.6807 29.3608 28.1273V26.6928" stroke="#5F6368" stroke-width="2" stroke-linecap="round" stroke-linejoin="round"/>
<path d="M8 20.4268L32.0005 20.4268" stroke="#5F6368" stroke-width="2" stroke-linecap="round"/>
</svg>
