<svg width="20" height="20" viewBox="0 0 20 20" fill="none" xmlns="http://www.w3.org/2000/svg">
<path d="M9.99999 1.66669C14.6 1.66669 18.3333 5.40002 18.3333 10C18.3333 14.6 14.6 18.3334 9.99999 18.3334C5.39999 18.3334 1.66666 14.6 1.66666 10C1.66666 5.40002 5.39999 1.66669 9.99999 1.66669ZM9.99999 16.6667C13.6833 16.6667 16.6667 13.6834 16.6667 10C16.6667 6.31669 13.6833 3.33335 9.99999 3.33335C6.31666 3.33335 3.33332 6.31669 3.33332 10C3.33332 13.6834 6.31666 16.6667 9.99999 16.6667ZM12.9467 5.87502L14.125 7.05335L9.99999 11.1784L8.82166 10L12.9467 5.87502V5.87502Z" fill="white"/>
</svg>
