<svg width="38" height="38" viewBox="0 0 38 38" fill="none" xmlns="http://www.w3.org/2000/svg">
<circle cx="19" cy="19" r="18" fill="#EEF9FF"/>
<circle cx="19" cy="19" r="18.5" stroke="#007EC6" stroke-opacity="0.2"/>
<path d="M26.7824 24.5258L23.6666 21.4797C23.5259 21.3422 23.3353 21.2658 23.1353 21.2658H22.6259C23.4884 20.1873 24.001 18.8307 24.001 17.355C24.001 13.8445 21.0914 11 17.5005 11C13.9096 11 11 13.8445 11 17.355C11 20.8655 13.9096 23.71 17.5005 23.71C19.01 23.71 20.3976 23.2089 21.5008 22.3657V22.8637C21.5008 23.0592 21.5789 23.2456 21.7195 23.3831L24.8354 26.4292C25.1292 26.7164 25.6042 26.7164 25.8948 26.4292L26.7793 25.5646C27.0731 25.2774 27.0731 24.813 26.7824 24.5258ZM17.5005 21.2658C15.2909 21.2658 13.5002 19.5182 13.5002 17.355C13.5002 15.1949 15.2878 13.4442 17.5005 13.4442C19.71 13.4442 21.5008 15.1919 21.5008 17.355C21.5008 19.5151 19.7131 21.2658 17.5005 21.2658Z" fill="#007EC6"/>
</svg>
