<svg width="20" height="20" viewBox="0 0 20 20" fill="none" xmlns="http://www.w3.org/2000/svg">
<path d="M16.9023 5.10939L16.9023 5.10944C16.9648 5.17191 17 5.25664 17 5.345C17 5.34504 17 5.34507 17 5.34511V16.6667C17 16.7551 16.9649 16.8399 16.9024 16.9024C16.8399 16.9649 16.7551 17 16.6667 17H3.33333C3.24493 17 3.16014 16.9649 3.09763 16.9024C3.03512 16.8399 3 16.7551 3 16.6667V3.33333C3 3.24493 3.03512 3.16014 3.09763 3.09763C3.16014 3.03512 3.24493 3 3.33333 3H5.33333V3.33333V7.5V8H5.83333H13.3333H13.8333V7.5V3.33333V3H14.7929L16.9023 5.10939ZM5 9.5H4.5V10V15.8333V16.3333H5H15H15.5V15.8333V10V9.5H15H5ZM11.3333 4.66667H12V6.16667H11.3333V4.66667Z" fill="white" stroke="white"/>
</svg>
