<svg width="11" height="12" viewBox="0 0 11 12" fill="none" xmlns="http://www.w3.org/2000/svg">
<path fill-rule="evenodd" clip-rule="evenodd" d="M10.346 5.60847L10.9597 6.22224L6.22778 10.9542C5.812 11.37 5.32858 11.6521 4.7775 11.8006C4.22643 11.9491 3.67536 11.9524 3.12429 11.8105C2.57321 11.6686 2.09309 11.3931 1.68391 10.9839C1.27473 10.5747 0.997546 10.0929 0.852353 9.53857C0.707159 8.98419 0.70551 8.42818 0.847403 7.8705C0.989297 7.31283 1.26813 6.82611 1.68391 6.41033L6.82175 1.27249C7.11873 0.975504 7.47016 0.775866 7.87604 0.673571C8.28193 0.571275 8.6878 0.571275 9.09368 0.673571C9.49956 0.775866 9.85099 0.975504 10.148 1.27249C10.445 1.56948 10.6446 1.91761 10.7469 2.31689C10.8492 2.71617 10.8459 3.11874 10.737 3.52463C10.6281 3.93051 10.4252 4.28194 10.1282 4.57892L5.8021 8.905C5.61731 9.08979 5.39952 9.21518 5.14873 9.28118C4.89795 9.34718 4.64881 9.34883 4.40132 9.28613C4.15383 9.22343 3.9377 9.09969 3.75291 8.9149C3.56811 8.73011 3.44107 8.51067 3.37177 8.25658C3.30248 8.00249 3.29918 7.74841 3.36187 7.49432C3.42457 7.24023 3.54831 7.0208 3.73311 6.83601L7.65331 2.91581L8.27697 3.53947L4.35677 7.45967C4.23798 7.57847 4.18188 7.71706 4.18848 7.87545C4.19508 8.03385 4.25778 8.17244 4.37657 8.29123C4.49537 8.41003 4.63066 8.46942 4.78245 8.46942C4.93425 8.46942 5.06954 8.41003 5.18833 8.29123L9.51441 3.96515C9.6992 3.78036 9.82624 3.56092 9.89554 3.30684C9.96484 3.05275 9.96814 2.79866 9.90544 2.54458C9.84274 2.29049 9.719 2.07105 9.53421 1.88626C9.34942 1.70147 9.12998 1.57772 8.87589 1.51503C8.6218 1.45233 8.36607 1.45398 8.10868 1.51998C7.85129 1.58597 7.63021 1.71137 7.44542 1.89616L2.30758 7.034C2.01059 7.33098 1.80931 7.68406 1.70371 8.09324C1.59811 8.50242 1.59646 8.90995 1.69876 9.31583C1.80106 9.72171 2.00069 10.0731 2.29768 10.3701C2.59467 10.6671 2.94444 10.8651 3.34703 10.9641C3.74961 11.0631 4.15383 11.0581 4.55971 10.9492C4.9656 10.8404 5.31702 10.6374 5.61401 10.3404L10.346 5.60847Z" fill="#8B94A3"/>
</svg>
