<svg width="20" height="20" viewBox="0 0 20 20" fill="none" xmlns="http://www.w3.org/2000/svg">
<path fill-rule="evenodd" clip-rule="evenodd" d="M14.1666 7.49996V5.83329C14.1666 3.49996 12.3333 1.66663 9.99998 1.66663C7.66665 1.66663 5.83331 3.49996 5.83331 5.83329V6H7.49998V5.83329C7.49998 4.41663 8.58331 3.33329 9.99998 3.33329C11.4166 3.33329 12.5 4.41663 12.5 5.83329V7.49996H8V7.5H5.81831C4.40901 7.50762 3.33331 8.5883 3.33331 9.99996V15.8333C3.33331 17.25 4.41665 18.3333 5.83331 18.3333H14.1666C15.5833 18.3333 16.6666 17.25 16.6666 15.8333V9.99996C16.6666 8.58329 15.5833 7.49996 14.1666 7.49996ZM10.8333 14.1666C10.8333 14.6666 10.5 15 9.99998 15C9.49998 15 9.16665 14.6666 9.16665 14.1666V11.6666C9.16665 11.1666 9.49998 10.8333 9.99998 10.8333C10.5 10.8333 10.8333 11.1666 10.8333 11.6666V14.1666Z" fill="#555555"/>
</svg>
