<svg width="15" height="14" viewBox="0 0 15 14" fill="none" xmlns="http://www.w3.org/2000/svg">
<path d="M7.29656 6.75C9.42138 6.75 11.1435 5.23916 11.1435 3.375C11.1435 1.51084 9.42138 0 7.29656 0C5.17174 0 3.44964 1.51084 3.44964 3.375C3.44964 5.23916 5.17174 6.75 7.29656 6.75ZM9.98941 7.59375H9.4875C8.8203 7.8627 8.07797 8.01562 7.29656 8.01562C6.51516 8.01562 5.77583 7.8627 5.10562 7.59375H4.60372C2.37371 7.59375 0.564453 9.18106 0.564453 11.1375V12.2344C0.564453 12.9331 1.21062 13.5 2.00705 13.5H12.5861C13.3825 13.5 14.0287 12.9331 14.0287 12.2344V11.1375C14.0287 9.18106 12.2194 7.59375 9.98941 7.59375Z" fill="#8B94A3"/>
</svg>
