<?xml version="1.0" encoding="iso-8859-1"?>
<!-- Generator: Adobe Illustrator 19.0.0, SVG Export Plug-In . SVG Version: 6.00 Build 0)  -->
<svg version="1.1" id="Capa_1" xmlns="http://www.w3.org/2000/svg" xmlns:xlink="http://www.w3.org/1999/xlink" x="0px" y="0px"
	 viewBox="0 0 512 512" style="enable-background:new 0 0 512 512;" xml:space="preserve">
<g>
	<g>
		<g>
			<path d="M256,203.5c-11.046,0-20,8.954-20,20V492c0,11.046,8.954,20,20,20s20-8.954,20-20V223.5
				C276,212.454,267.046,203.5,256,203.5z" fill="white"/>
			<path d="M298.377,120.524c-23.398-23.346-61.424-23.329-84.81,0.056l-74.716,74.784c-7.806,7.814-7.8,20.477,0.013,28.284
				c3.906,3.902,9.02,5.852,14.136,5.852c5.121,0,10.243-1.956,14.149-5.864l74.71-74.778c7.797-7.798,20.486-7.798,28.283,0
				c0.029,0.029,0.059,0.058,0.088,0.087l75.716,74.784c7.859,7.762,20.522,7.683,28.284-0.175
				c7.762-7.859,7.683-20.522-0.175-28.284L298.377,120.524z" fill="white"/>
			<path d="M492,0H20C8.954,0,0,8.954,0,20s8.954,20,20,20h472c11.046,0,20-8.954,20-20S503.046,0,492,0z" fill="white"/>
		</g>
	</g>
</g>
<g>
</g>
<g>
</g>
<g>
</g>
<g>
</g>
<g>
</g>
<g>
</g>
<g>
</g>
<g>
</g>
<g>
</g>
<g>
</g>
<g>
</g>
<g>
</g>
<g>
</g>
<g>
</g>
<g>
</g>
</svg>
