<?xml version="1.0" encoding="UTF-8"?>
<svg width="390" height="844" viewBox="0 0 390 844" xmlns="http://www.w3.org/2000/svg">
  
  <!-- Phone Frame -->
  <rect x="0" y="0" width="390" height="844" fill="#f8f9fa" stroke="#000" stroke-width="2" rx="25"/>
  
  <!-- Status Bar -->
  <rect x="0" y="0" width="390" height="44" fill="#000" rx="25"/>
  <text x="195" y="28" text-anchor="middle" fill="white" font-family="Arial" font-size="14">9:41 AM</text>
  
  <!-- Header Bar -->
  <rect x="5" y="44" width="380" height="60" fill="white" stroke="#ddd" stroke-width="1" rx="5"/>
  
  <!-- Back Button -->
  <text x="25" y="83" fill="#0066CC" font-family="Arial" font-size="20">‹</text>
  
  <!-- Screen Title -->
  <text x="195" y="83" text-anchor="middle" fill="#333" font-family="Arial" font-size="16" font-weight="bold">Khảo sát hiện trạng nhà đất</text>
  
  <!-- User Avatar -->
  <circle cx="365" cy="74" r="16" fill="#0066CC"/>
  
  <!-- Main Content Area -->
  <rect x="5" y="104" width="380" height="651" fill="white"/>
  
  <!-- Documents List -->
  <text x="25" y="135" fill="#333" font-family="Arial" font-size="16" font-weight="bold">Danh sách tài liệu</text>
  
  <!-- Document Item 1 -->
  <rect x="25" y="150" width="340" height="85" fill="white" stroke="#ddd" stroke-width="1" rx="8"/>
  <text x="35" y="170" fill="#333" font-family="Arial" font-size="14" font-weight="bold">QSDĐ tại thôn 3, xã Đăk Ơ, huyện Bù Gia Mập...</text>
  <text x="35" y="190" fill="#666" font-family="Arial" font-size="12">Hoàng Anh Tuấn</text>
  <rect x="275" y="205" width="80" height="25" fill="#ffc107" rx="12"/>
  <text x="315" y="220" text-anchor="middle" fill="white" font-family="Arial" font-size="12" font-weight="bold">Nháp</text>
  
  <!-- Document Item 2 -->
  <rect x="25" y="245" width="340" height="85" fill="white" stroke="#ddd" stroke-width="1" rx="8"/>
  <text x="35" y="265" fill="#333" font-family="Arial" font-size="14" font-weight="bold">QSDĐ Tại phước Bình Phước Long ,bình Phước</text>
  <text x="35" y="285" fill="#666" font-family="Arial" font-size="12">Nguyễn Khoa</text>
  <rect x="275" y="300" width="80" height="25" fill="#ffc107" rx="12"/>
  <text x="315" y="315" text-anchor="middle" fill="white" font-family="Arial" font-size="12" font-weight="bold">Nháp</text>
  
  <!-- Document Item 3 -->
  <rect x="25" y="340" width="340" height="85" fill="white" stroke="#ddd" stroke-width="1" rx="8"/>
  <text x="35" y="360" fill="#333" font-family="Arial" font-size="14" font-weight="bold">QSDĐ tại thôn 4, xã Đường 10, huyện Bù Đăng...</text>
  <text x="35" y="380" fill="#666" font-family="Arial" font-size="12">Hoàng Anh Tuấn</text>
  <rect x="275" y="395" width="80" height="25" fill="#17a2b8" rx="12"/>
  <text x="315" y="410" text-anchor="middle" fill="white" font-family="Arial" font-size="12" font-weight="bold">Đã gửi</text>
  
  <!-- Document Item 4 -->
  <rect x="25" y="435" width="340" height="85" fill="white" stroke="#ddd" stroke-width="1" rx="8"/>
  <text x="35" y="455" fill="#333" font-family="Arial" font-size="14" font-weight="bold">QSDĐ tại đường Thống Nhất, phước Bình...</text>
  <text x="35" y="475" fill="#666" font-family="Arial" font-size="12">Lê Thị Thu</text>
  <rect x="275" y="490" width="80" height="25" fill="#17a2b8" rx="12"/>
  <text x="315" y="505" text-anchor="middle" fill="white" font-family="Arial" font-size="12" font-weight="bold">Đã gửi</text>
  
  <!-- Document Item 5 -->
  <rect x="25" y="530" width="340" height="85" fill="white" stroke="#ddd" stroke-width="1" rx="8"/>
  <text x="35" y="550" fill="#333" font-family="Arial" font-size="14" font-weight="bold">QSDĐ tại đường ĐT 755, thôn 8, xã Thống Nhất...</text>
  <text x="35" y="570" fill="#666" font-family="Arial" font-size="12">Lê Thị Thu</text>
  <rect x="265" y="585" width="90" height="25" fill="#28a745" rx="12"/>
  <text x="310" y="600" text-anchor="middle" fill="white" font-family="Arial" font-size="12" font-weight="bold">Đã duyệt</text>
  
  <!-- Document Item 6 -->
  <rect x="25" y="625" width="340" height="85" fill="white" stroke="#ddd" stroke-width="1" rx="8"/>
  <text x="35" y="645" fill="#333" font-family="Arial" font-size="14" font-weight="bold">QSDĐ tại thôn 8, xã Long Bình, huyện Phú Riềng...</text>
  <text x="35" y="665" fill="#666" font-family="Arial" font-size="12">Lê Thị Niềm</text>
  <rect x="275" y="680" width="80" height="25" fill="#dc3545" rx="12"/>
  <text x="315" y="695" text-anchor="middle" fill="white" font-family="Arial" font-size="12" font-weight="bold">Từ chối</text>
  
</svg> 