<svg width="390" height="844" xmlns="http://www.w3.org/2000/svg">
  <!-- Phone Frame -->
  <rect width="390" height="844" fill="#f8f9fa" stroke="#000" stroke-width="2" rx="25"/>
  
  <!-- Status Bar -->
  <rect x="0" y="0" width="390" height="44" fill="#000" rx="25"/>
  <text x="195" y="30" text-anchor="middle" fill="white" font-size="14" font-family="Arial">9:41 AM</text>
  
  <!-- Header Bar -->
  <rect x="5" y="44" width="380" height="60" fill="white" stroke="#ddd" stroke-width="1" rx="5"/>
  
  <!-- Back Button -->
  <text x="25" y="78" text-anchor="middle" fill="#0066CC" font-size="20" font-family="Arial">Рђ╣</text>
  
  <!-- Blueprint Title (Center) -->
  <text x="195" y="78" text-anchor="middle" fill="#333" font-size="16" font-weight="bold" font-family="Arial">Khр║Бo s├Аt hiр╗Єn trр║Аng nh├а ─Љр║Цt</text>
  
  <!-- Avatar (Right) -->
  <circle cx="365" cy="74" r="16" fill="#0066CC"/>
  <text x="365" y="78" text-anchor="middle" fill="white" font-size="12" font-family="Arial">U</text>
  
  <!-- Document Title Area -->
  <rect x="20" y="120" width="350" height="80" fill="white" stroke="#ddd" stroke-width="1" rx="8"/>
  
  <!-- Document Title (Clipped) -->
  <text x="30" y="145" fill="#333" font-size="14" font-weight="bold" font-family="Arial">QSD─љ tр║Аi th├┤n 3, x├Б ─љ─Ѓk ка...</text>
  
  <!-- Document Status Badge -->
  <rect x="280" y="135" width="60" height="25" fill="#ffc107" stroke="none" rx="12"/>
  <text x="310" y="150" text-anchor="middle" fill="#fff" font-size="12" font-family="Arial">Nh├Аp</text>
  

  
  <!-- Sections List Button -->
  <rect x="25" y="160" width="30" height="30" fill="#f0f0f0" stroke="#ccc" stroke-width="1" rx="15"/>
  <text x="40" y="180" text-anchor="middle" fill="#666" font-size="16" font-family="Arial">Рў░</text>
  
  <!-- Active Section -->
  <text x="60" y="180" fill="#0066CC" font-size="16" font-weight="bold" font-family="Arial">Th├┤ng tin ─Љр╗Іa chр╗Ѕ</text>
  
  <!-- Form Fields Container -->
  <rect x="20" y="200" width="350" height="500" fill="white" stroke="none"/>
  
  <!-- Loр║Аi t├аi sр║Бn Field -->
  <text x="30" y="220" fill="#666" font-size="12" font-family="Arial">Loр║Аi t├аi sр║Бn</text>
  <rect x="30" y="225" width="330" height="40" fill="white" stroke="#ccc" stroke-width="1" rx="5"/>
  <text x="40" y="248" fill="#333" font-size="14" font-family="Arial">─љр║Цt trр╗Љng</text>
  <text x="340" y="248" text-anchor="middle" fill="#666" font-size="14" font-family="Arial">Рќ╝</text>
  
  <!-- Tр╗Їa ─Љр╗Ў Field with Map -->
  <text x="30" y="285" fill="#666" font-size="12" font-family="Arial">Tр╗Їa ─Љр╗Ў</text>
  <rect x="30" y="290" width="330" height="80" fill="#e8f4fd" stroke="#ccc" stroke-width="1" rx="5"/>
  <rect x="40" y="300" width="310" height="60" fill="#d1ecf1" stroke="#bee5eb" stroke-width="1" rx="3"/>
  
  <!-- Map Roads/Features -->
  <path d="M 60 320 Q 120 315 180 325 T 320 330" stroke="#999" stroke-width="2" fill="none"/>
  <path d="M 80 340 L 150 345 L 220 340 L 290 345" stroke="#aaa" stroke-width="1.5" fill="none"/>
  <path d="M 170 305 Q 185 320 200 340 Q 215 350 240 345" stroke="#bbb" stroke-width="1" fill="none"/>
  <line x1="120" y1="310" x2="280" y2="350" stroke="#ccc" stroke-width="1"/>
  <line x1="90" y1="350" x2="180" y2="315" stroke="#ddd" stroke-width="0.5"/>
  
  <circle cx="195" cy="330" r="4" fill="#dc3545"/>
  <text x="40" y="315" fill="#666" font-size="10" font-family="Arial">­ЪЊЇ Map</text>
  <text x="40" y="355" fill="#333" font-size="12" font-family="Arial">11.521841, 106.81104</text>
  
  <!-- ─љр╗Іa chр╗Ѕ Section -->
  <text x="30" y="390" fill="#666" font-size="12" font-family="Arial">─љр╗Іa chр╗Ѕ</text>
  
  <!-- Tр╗Ѕnh/Th├аnh phр╗Љ -->
  <text x="30" y="410" fill="#666" font-size="11" font-family="Arial">Tр╗Ѕnh/Th├аnh phр╗Љ</text>
  <rect x="30" y="415" width="330" height="35" fill="white" stroke="#ccc" stroke-width="1" rx="5"/>
  <text x="40" y="435" fill="#333" font-size="14" font-family="Arial">B├гnh Phк░р╗Џc</text>
  <text x="340" y="435" text-anchor="middle" fill="#666" font-size="12" font-family="Arial">Рќ╝</text>
  
  <!-- Huyр╗Єn/Quр║Гn -->
  <text x="30" y="470" fill="#666" font-size="11" font-family="Arial">Huyр╗Єn/Quр║Гn</text>
  <rect x="30" y="475" width="330" height="35" fill="white" stroke="#ccc" stroke-width="1" rx="5"/>
  <text x="40" y="495" fill="#333" font-size="14" font-family="Arial">B├╣ Gia Mр║Гp</text>
  <text x="340" y="495" text-anchor="middle" fill="#666" font-size="12" font-family="Arial">Рќ╝</text>
  
  <!-- X├Б/Phк░р╗Юng -->
  <text x="30" y="530" fill="#666" font-size="11" font-family="Arial">X├Б/Phк░р╗Юng</text>
  <rect x="30" y="535" width="330" height="35" fill="white" stroke="#ccc" stroke-width="1" rx="5"/>
  <text x="40" y="555" fill="#333" font-size="14" font-family="Arial">─љ─Ѓk ка</text>
  <text x="340" y="555" text-anchor="middle" fill="#666" font-size="12" font-family="Arial">Рќ╝</text>
  
  <!-- T├фn ─Љк░р╗Юng -->
  <text x="30" y="590" fill="#666" font-size="11" font-family="Arial">T├фn ─Љк░р╗Юng</text>
  <rect x="30" y="595" width="330" height="35" fill="white" stroke="#ccc" stroke-width="1" rx="5"/>
  <text x="40" y="610" fill="#999" font-size="14" font-family="Arial">Nhр║Гp t├фn ─Љк░р╗Юng...</text>
  
  <!-- Row for Sр╗Љ nh├а and Sр╗Љ tр╗Ю -->
  <text x="30" y="650" fill="#666" font-size="11" font-family="Arial">Sр╗Љ nh├а</text>
  <rect x="30" y="655" width="160" height="35" fill="white" stroke="#ccc" stroke-width="1" rx="5"/>
  <text x="40" y="670" fill="#999" font-size="14" font-family="Arial">Sр╗Љ nh├а...</text>
  
  <text x="200" y="650" fill="#666" font-size="11" font-family="Arial">Sр╗Љ tр╗Ю</text>
  <rect x="200" y="655" width="160" height="35" fill="white" stroke="#ccc" stroke-width="1" rx="5"/>
  <text x="210" y="670" fill="#999" font-size="14" font-family="Arial">Sр╗Љ tр╗Ю...</text>
  
  <!-- Sр╗Љ thр╗Гa -->
  <text x="30" y="710" fill="#666" font-size="11" font-family="Arial">Sр╗Љ thр╗Гa</text>
  <rect x="30" y="715" width="330" height="35" fill="white" stroke="#ccc" stroke-width="1" rx="5"/>
  <text x="40" y="730" fill="#999" font-size="14" font-family="Arial">Nhр║Гp sр╗Љ thр╗Гa...</text>
  
  <!-- Bottom Bar -->
  <rect x="5" y="770" width="380" height="59" fill="white" stroke="#ddd" stroke-width="1" rx="5"/>
  
  <!-- Save Button -->
  <rect x="25" y="780" width="140" height="40" fill="#6c757d" stroke="none" rx="5"/>
  <text x="95" y="803" text-anchor="middle" fill="white" font-size="16" font-weight="bold" font-family="Arial">Lк░u</text>
  
  <!-- Submit Button -->
  <rect x="225" y="780" width="140" height="40" fill="#0066CC" stroke="none" rx="5"/>
  <text x="295" y="803" text-anchor="middle" fill="white" font-size="16" font-weight="bold" font-family="Arial">Gр╗Гi</text>
</svg> 