<?xml version="1.0" encoding="UTF-8"?>
<svg width="390" height="844" xmlns="http://www.w3.org/2000/svg">

  <!-- Phone Frame -->
  <rect x="0" y="0" width="390" height="844" fill="#f8f9fa" stroke="#000" stroke-width="2" rx="25"/>

  <!-- Status Bar -->
  <rect x="0" y="0" width="390" height="44" fill="#000" rx="25"/>
  <text x="195" y="28" text-anchor="middle" fill="white" font-family="Arial" font-size="14">9:41 AM</text>

  <!-- Header Bar -->
  <rect x="5" y="44" width="380" height="60" fill="white" stroke="#ddd" stroke-width="1" rx="5"/>
  
  <!-- Back Button -->
  <text x="25" y="80" fill="#0066CC" font-family="Arial" font-size="20">‹</text>
  
  <!-- Header Title -->
  <text x="195" y="82" text-anchor="middle" fill="#333" font-family="Arial" font-size="16" font-weight="bold">Khảo sát hiện trạng</text>
  
  <!-- User Avatar -->
  <circle cx="365" cy="74" r="16" fill="#0066CC"/>

  <!-- Document Title Area -->
  <rect x="20" y="120" width="350" height="80" fill="white" stroke="#ddd" stroke-width="1" rx="8"/>
  <text x="30" y="140" fill="#333" font-family="Arial" font-size="14" font-weight="bold">QSDĐ tại thôn 3, xã Đăk Ơ, huyện Bù Gia Mập...</text>
  
  <!-- Section Title -->
  <text x="30" y="185" fill="#0066CC" font-family="Arial" font-size="14" font-weight="bold">Công trình xây dựng</text>
  
  <!-- Status Badge -->
  <rect x="310" y="155" width="50" height="25" fill="#ffc107" rx="12"/>
  <text x="335" y="170" text-anchor="middle" fill="white" font-family="Arial" font-size="12">Nháp</text>

  <!-- Sections List Button -->
  <rect x="10" y="145" width="30" height="30" fill="#f0f0f0" stroke="#ccc" stroke-width="1" rx="15"/>
  <text x="25" y="165" text-anchor="middle" fill="#666" font-family="Arial" font-size="16">☰</text>

  <!-- Main Content Area -->
  
  <!-- Building Card 1 -->
  <rect x="20" y="220" width="350" height="120" fill="white" stroke="#ddd" stroke-width="1" rx="8"/>
  
  <!-- Edit Icon -->
  <text x="350" y="240" fill="#0066CC" font-family="Arial" font-size="16">✎</text>
  
  <!-- Card Content -->
  <text x="30" y="240" fill="#666" font-family="Arial" font-size="11">Loại</text>
  <text x="30" y="255" fill="#333" font-family="Arial" font-size="14">Nhà ở riêng lẻ</text>
  
  <text x="30" y="275" fill="#666" font-family="Arial" font-size="11">Chất lượng còn lại (%)</text>
  <text x="30" y="290" fill="#333" font-family="Arial" font-size="14">85%</text>
  
  <text x="200" y="240" fill="#666" font-family="Arial" font-size="11">Diện tích sàn (m2)</text>
  <text x="200" y="255" fill="#333" font-family="Arial" font-size="14">120</text>
  
  <text x="200" y="275" fill="#666" font-family="Arial" font-size="11">Đơn giá xây dựng (VND/m2)</text>
  <text x="200" y="290" fill="#333" font-family="Arial" font-size="14">8,500,000</text>
  
  <text x="30" y="315" fill="#666" font-family="Arial" font-size="11">Giá trị ước tính (VND)</text>
  <text x="30" y="330" fill="#333" font-family="Arial" font-size="14">1,020,000,000</text>

  <!-- Building Card 2 -->
  <rect x="20" y="360" width="350" height="120" fill="white" stroke="#ddd" stroke-width="1" rx="8"/>
  
  <!-- Edit Icon -->
  <text x="350" y="380" fill="#0066CC" font-family="Arial" font-size="16">✎</text>
  
  <!-- Card Content -->
  <text x="30" y="380" fill="#666" font-family="Arial" font-size="11">Loại</text>
  <text x="30" y="395" fill="#333" font-family="Arial" font-size="14">Biệt thự</text>
  
  <text x="30" y="415" fill="#666" font-family="Arial" font-size="11">Chất lượng còn lại (%)</text>
  <text x="30" y="430" fill="#333" font-family="Arial" font-size="14">95%</text>
  
  <text x="200" y="380" fill="#666" font-family="Arial" font-size="11">Diện tích sàn (m2)</text>
  <text x="200" y="395" fill="#333" font-family="Arial" font-size="14">250</text>
  
  <text x="200" y="415" fill="#666" font-family="Arial" font-size="11">Đơn giá xây dựng (VND/m2)</text>
  <text x="200" y="430" fill="#333" font-family="Arial" font-size="14">12,000,000</text>
  
  <text x="30" y="455" fill="#666" font-family="Arial" font-size="11">Giá trị ước tính (VND)</text>
  <text x="30" y="470" fill="#333" font-family="Arial" font-size="14">2,850,000,000</text>

  <!-- Add Button -->
  <rect x="20" y="500" width="350" height="50" fill="#f0f0f0" stroke="#ddd" stroke-width="1" rx="8"/>
  <text x="195" y="530" text-anchor="middle" fill="#0066CC" font-family="Arial" font-size="16" font-weight="bold">+ Thêm công trình</text>

  <!-- Bottom Bar -->
  <rect x="5" y="770" width="380" height="59" fill="white" stroke="#ddd" stroke-width="1" rx="5"/>
  
  <!-- Save Button -->
  <rect x="40" y="785" width="140" height="40" fill="#6c757d" rx="5"/>
  <text x="110" y="807" text-anchor="middle" fill="white" font-family="Arial" font-size="16" font-weight="bold">Lưu</text>
  
  <!-- Submit Button -->
  <rect x="210" y="785" width="140" height="40" fill="#0066CC" rx="5"/>
  <text x="280" y="807" text-anchor="middle" fill="white" font-family="Arial" font-size="16" font-weight="bold">Gửi</text>

</svg> 