<?xml version="1.0" encoding="utf-8"?>
<!-- Generator: Adobe Illustrator 24.0.0, SVG Export Plug-In . SVG Version: 6.00 Build 0)  -->
<svg version="1.1" xmlns="http://www.w3.org/2000/svg" xmlns:xlink="http://www.w3.org/1999/xlink" x="0px" y="0px"
	 viewBox="0 0 64 64" enable-background="new 0 0 64 64" xml:space="preserve">
<g id="Captions">
</g>
<g id="Icons">
	<g>
		<g>
			<path fill="#F0F0F0" d="M36.344,38.343l4.163-4.163C40.187,33.703,40,33.13,40,32.515c0-0.715,0.262-1.364,0.681-1.88
				C40.237,29.788,40,28.841,40,27.858V24h12V12l-8-8H12v56h23.54C34.586,58.937,34,57.538,34,56V44
				C34,41.863,34.832,39.854,36.344,38.343z"/>
		</g>
		<g>
			<rect x="12" y="4" transform="matrix(-1 -1.224647e-16 1.224647e-16 -1 28 64)" fill="#D2D2D2" width="4" height="56"/>
		</g>
		<g>
			<polygon fill="#D2D2D2" points="44,4 44,12 52,12 			"/>
		</g>
		<g>
			<polygon fill="#FA6450" points="28,24 28,32 32,28 36,32 36,24 			"/>
		</g>
		<g>
			<polygon fill="#DC4632" points="30,24 28,24 28,32 30,30 			"/>
		</g>
		<g>
			<circle fill="#FAB400" cx="32" cy="18" r="8"/>
		</g>
		<g>
			<path fill="#DC9600" d="M25.983,18c0-4.082,3.059-7.443,7.009-7.932C32.666,10.027,32.336,10,32,10c-4.418,0-8,3.582-8,8
				s3.582,8,8,8c0.336,0,0.666-0.027,0.991-0.068C29.042,25.443,25.983,22.082,25.983,18z"/>
		</g>
		<g>
			<polygon fill="#F0F0F0" points="37,16 31,22 27,18 29,16 31,18 35,14 			"/>
		</g>
		<g>
			<path fill="#FAB400" d="M40,60h16c2.209,0,4-1.791,4-4V44c0-1.591-0.632-3.117-1.757-4.243L52,33.515h-8l-6.243,6.243
				C36.632,40.883,36,42.409,36,44v12C36,58.209,37.791,60,40,60z"/>
		</g>
		<g>
			<path fill="#505050" d="M34.26,42H20v2h14C34,43.315,34.094,42.646,34.26,42z"/>
		</g>
		<g>
			<rect x="20" y="46" fill="#505050" width="14" height="2"/>
		</g>
		<g>
			<path fill="#505050" d="M36.344,38.343L36.687,38H20v2h15.078C35.424,39.403,35.843,38.844,36.344,38.343z"/>
		</g>
		<g>
			<path fill="#FAB400" d="M44,31.515l-0.828-0.828C42.421,29.936,42,28.919,42,27.858V26h12v1.858c0,1.061-0.421,2.078-1.172,2.828
				L52,31.515H44z"/>
		</g>
		<g>
			<path fill="#DC9600" d="M38,56V44c0-1.591,0.632-3.117,1.757-4.243L46,33.515h-2l-6.243,6.243C36.632,40.883,36,42.409,36,44v12
				c0,2.209,1.791,4,4,4h2C39.791,60,38,58.209,38,56z"/>
		</g>
		<g>
			<path fill="#DC9600" d="M44,27.858V26h-2v1.858c0,1.061,0.421,2.078,1.172,2.828L44,31.515h2l-0.828-0.828
				C44.421,29.936,44,28.919,44,27.858z"/>
		</g>
		<g>
			<path fill="#505050" d="M40.409,34H20v2h18.687l1.82-1.82C40.469,34.123,40.443,34.059,40.409,34z"/>
		</g>
		<g>
			<path fill="#505050" d="M43,33.515h10c0.552,0,1-0.448,1-1v0c0-0.552-0.448-1-1-1H43c-0.552,0-1,0.448-1,1v0
				C42,33.067,42.448,33.515,43,33.515z"/>
		</g>
		<g>
			<path fill="#3C3C3C" d="M44,32.515c0-0.552,0.448-1,1-1h-2c-0.552,0-1,0.448-1,1s0.448,1,1,1h2
				C44.448,33.515,44,33.067,44,32.515z"/>
		</g>
		<g>
			<g>
				<circle fill="#BE7800" cx="48" cy="47.571" r="6"/>
			</g>
			<g>
				<polygon fill="#FAB400" points="50,45.429 50,44 48.667,44 48.667,42.571 47.333,42.571 47.333,44 46,44 46,48.286 
					48.667,48.286 48.667,49.714 46,49.714 46,51.143 47.333,51.143 47.333,52.571 48.667,52.571 48.667,51.143 50,51.143 
					50,46.857 47.333,46.857 47.333,45.429 				"/>
			</g>
		</g>
	</g>
</g>
</svg>
