<?xml version="1.0" standalone="no"?>
<!DOCTYPE svg PUBLIC "-//W3C//DTD SVG 20010904//EN"
 "http://www.w3.org/TR/2001/REC-SVG-20010904/DTD/svg10.dtd">
<svg version="1.0" xmlns="http://www.w3.org/2000/svg"
 width="700.000000pt" height="700.000000pt" viewBox="0 0 700.000000 700.000000"
 preserveAspectRatio="xMidYMid meet">
<metadata>
Created by potrace 1.14, written by Peter Selinger 2001-2017
</metadata>
<g transform="translate(0.000000,700.000000) scale(0.100000,-0.100000)"
fill="#000000" stroke="none">
<path d="M1314 6555 c-2 -5 -3 -1385 -2 -3065 l3 -3054 1282 -1 c706 0 1283 3
1283 6 0 3 -14 24 -31 45 -17 22 -47 72 -66 112 -64 135 -64 138 -64 926 0
391 3 731 7 756 39 281 94 371 451 726 l254 253 -20 39 c-24 47 -39 124 -34
179 3 44 35 128 58 153 12 14 11 24 -10 77 -14 34 -30 86 -36 115 -15 71 -19
537 -5 546 6 4 297 7 646 8 349 1 640 2 646 3 9 1 12 172 12 655 l0 654 -431
431 c-238 237 -435 434 -439 437 -13 12 -3500 10 -3504 -1z"/>
<path d="M4590 4039 c0 -201 30 -287 143 -405 38 -41 66 -75 61 -75 -5 -1 -27
-3 -49 -4 -22 -1 -50 -3 -62 -4 -34 -2 -80 -47 -87 -86 -8 -42 13 -93 46 -114
13 -8 53 -16 91 -19 l69 -5 -354 -356 c-195 -196 -369 -375 -386 -397 -46 -60
-89 -157 -109 -244 -15 -67 -17 -151 -17 -795 0 -662 2 -725 18 -780 44 -148
153 -257 301 -301 56 -16 127 -17 960 -17 495 0 920 2 945 4 101 6 218 64 291
142 41 44 96 162 105 222 9 64 9 1380 0 1461 -12 109 -55 217 -125 314 -14 19
-172 182 -351 362 -179 179 -339 341 -357 360 l-32 33 69 1 c78 1 112 17 136
67 13 27 13 38 2 71 -19 58 -50 76 -135 79 l-71 2 69 72 c115 122 141 193 144
393 l2 135 -658 1 -659 1 0 -118z"/>
</g>
</svg>
